<svg width="44" height="44" viewBox="0 0 44 44" fill="black" xmlns="http://www.w3.org/2000/svg">
<path d="M38.4336 5.83128H34.7228V2.1205C34.7229 0.954162 33.7685 0 32.6028 0H5.56622C4.39996 0 3.4458 0.954162 3.4458 2.1205V36.0481C3.4458 37.2144 4.39996 38.1686 5.56631 38.1686H9.27717V41.8795C9.27717 43.0458 10.2309 44 11.3977 44H29.4212C30.587 44 32.2367 43.3458 33.0854 42.547L39.009 36.9712C39.8587 36.1723 40.5532 34.5639 40.5532 33.3977L40.5542 7.95195C40.5541 6.78553 39.5999 5.83128 38.4336 5.83128ZM9.27699 7.95187V36.5783H5.56622C5.27893 36.5783 5.03616 36.3355 5.03616 36.0482V2.1205C5.03616 1.83322 5.27893 1.59044 5.56622 1.59044H32.6029C32.8897 1.59044 33.1329 1.83322 33.1329 2.1205V5.83136H11.3975C10.2307 5.83136 9.27699 6.78553 9.27699 7.95187ZM37.919 35.8133L31.9954 41.3886C31.874 41.5027 31.716 41.6145 31.5416 41.7209V36.8433C31.5416 36.4791 31.6884 36.1514 31.9307 35.9076C32.1751 35.6654 32.5027 35.5181 32.8669 35.5181H38.1708C38.0885 35.6298 38.0043 35.7327 37.919 35.8133ZM38.9627 33.3975C38.9627 33.5549 38.934 33.7373 38.8906 33.9275H32.8668C31.258 33.9307 29.9544 35.2343 29.9511 36.8432V42.3453C29.7619 42.3835 29.5795 42.4094 29.4211 42.4094H11.3975V42.4095C11.1096 42.4095 10.8674 42.1667 10.8674 41.8794V7.95178C10.8674 7.66449 11.1097 7.42172 11.3975 7.42172H38.4336C38.7208 7.42172 38.9636 7.66449 38.9636 7.95178L38.9627 33.3975Z" fill="white"/>
<path d="M32.6027 13.2529H17.2293C16.7898 13.2529 16.4341 13.6086 16.4341 14.0481C16.4341 14.4876 16.7899 14.8433 17.2293 14.8433H32.6027C33.0416 14.8433 33.3979 14.4876 33.3979 14.0481C33.3979 13.6086 33.0416 13.2529 32.6027 13.2529Z" fill="white"/>
<path d="M32.6027 23.8553H17.2293C16.7898 23.8553 16.4341 24.211 16.4341 24.6505C16.4341 25.09 16.7899 25.4457 17.2293 25.4457H32.6027C33.0416 25.4457 33.3979 25.09 33.3979 24.6505C33.3979 24.211 33.0416 23.8553 32.6027 23.8553Z" fill="white"/>
<path d="M25.7111 29.1566H17.2293C16.7898 29.1566 16.4341 29.5123 16.4341 29.9518C16.4341 30.3913 16.7898 30.747 17.2293 30.747H25.7111C26.1501 30.747 26.5058 30.3913 26.5058 29.9518C26.5058 29.5123 26.1501 29.1566 25.7111 29.1566Z" fill="white"/>
<path d="M32.6027 18.5541H17.2293C16.7898 18.5541 16.4341 18.9098 16.4341 19.3493C16.4341 19.7887 16.7899 20.1444 17.2293 20.1444H32.6027C33.0416 20.1444 33.3979 19.7887 33.3979 19.3493C33.3979 18.9098 33.0416 18.5541 32.6027 18.5541Z" fill="white"/>
</svg>
