<svg width="45" height="45" viewBox="0 0 45 45" fill="none" xmlns="http://www.w3.org/2000/svg">
<path d="M26.0156 20.3906C25.5305 20.3906 25.1367 20.7844 25.1367 21.2695C25.1367 21.7547 25.5305 22.1484 26.0156 22.1484C26.5008 22.1484 26.8945 21.7547 26.8945 21.2695C26.8945 20.7844 26.5008 20.3906 26.0156 20.3906Z" fill="black"/>
<path d="M22.5 15.1172C22.0148 15.1172 21.6211 15.5109 21.6211 15.9961C21.6211 16.4813 22.0148 16.875 22.5 16.875C22.9852 16.875 23.3789 16.4813 23.3789 15.9961C23.3789 15.5109 22.9852 15.1172 22.5 15.1172Z" fill="black"/>
<path d="M11.9531 37.9688C11.468 37.9688 11.0742 38.3625 11.0742 38.8477C11.0742 39.3328 11.468 39.7266 11.9531 39.7266C12.4383 39.7266 12.832 39.3328 12.832 38.8477C12.832 38.3625 12.4383 37.9688 11.9531 37.9688Z" fill="black"/>
<path d="M39.9387 35.8311L28.6522 15.7659V5.12279C29.6753 4.76007 30.41 3.78264 30.41 2.63672C30.41 1.18283 29.2272 0 27.7733 0H17.2264C15.7725 0 14.5897 1.18283 14.5897 2.63672C14.5897 3.78264 15.3244 4.76007 16.3475 5.12279V15.7659L5.06093 35.8311C3.97742 37.7573 3.99667 40.0462 5.11226 41.9538C6.22777 43.8612 8.21304 45 10.4228 45H34.5769C36.7866 45 38.7718 43.8612 39.8874 41.9538C41.003 40.0462 41.0223 37.7573 39.9387 35.8311ZM17.9925 16.4269C18.0665 16.2954 18.1053 16.147 18.1053 15.9961V5.27344H18.9842C19.4695 5.27344 19.8631 4.87986 19.8631 4.39453C19.8631 3.9092 19.4695 3.51562 18.9842 3.51562H17.2264C16.7418 3.51562 16.3475 3.12135 16.3475 2.63672C16.3475 2.15209 16.7418 1.75781 17.2264 1.75781H27.7733C28.2579 1.75781 28.6522 2.15209 28.6522 2.63672C28.6522 3.12135 28.2579 3.51562 27.7733 3.51562H26.0155C25.5301 3.51562 25.1366 3.9092 25.1366 4.39453C25.1366 4.87986 25.5301 5.27344 26.0155 5.27344H26.8944V15.9961C26.8944 16.1471 26.9332 16.2954 27.0072 16.4269L32.1876 25.6367C29.024 25.3805 25.8713 26.0204 22.9748 27.5202C19.2512 29.4471 15.106 29.7864 11.1975 28.507L17.9925 16.4269ZM38.37 41.0664C37.5733 42.4288 36.1552 43.2422 34.5769 43.2422H10.4228C8.84445 43.2422 7.42642 42.4288 6.62969 41.0664C5.83279 39.7038 5.81899 38.0688 6.59304 36.6928L10.3203 30.0665C12.1287 30.698 13.9977 31.0168 15.8958 31.0168C16.1768 31.0168 16.4585 31.0098 16.7407 30.9959C19.1933 30.8744 21.5626 30.2302 23.7829 29.0813C26.7529 27.5435 30.0195 27.0127 33.256 27.536L38.4067 36.6928C39.1807 38.0688 39.167 39.7038 38.37 41.0664Z" fill="black"/>
<path d="M18.9844 20.3906C17.5305 20.3906 16.3477 21.5735 16.3477 23.0273C16.3477 24.4812 17.5305 25.6641 18.9844 25.6641C20.4383 25.6641 21.6211 24.4812 21.6211 23.0273C21.6211 21.5735 20.4383 20.3906 18.9844 20.3906ZM18.9844 23.9062C18.4997 23.9062 18.1055 23.512 18.1055 23.0273C18.1055 22.5427 18.4997 22.1484 18.9844 22.1484C19.469 22.1484 19.8633 22.5427 19.8633 23.0273C19.8633 23.512 19.469 23.9062 18.9844 23.9062Z" fill="black"/>
<path d="M33.0469 37.9688H15.4688C14.9834 37.9688 14.5898 38.3623 14.5898 38.8477C14.5898 39.333 14.9834 39.7266 15.4688 39.7266H33.0469C33.5322 39.7266 33.9258 39.333 33.9258 38.8477C33.9258 38.3623 33.5322 37.9688 33.0469 37.9688Z" fill="black"/>
</svg>
