<svg width="47" height="41" viewBox="0 0 47 41" fill="none" xmlns="http://www.w3.org/2000/svg">
<path d="M5.89703 9.19487C2.49772 9.46543 -0.293312 12.4432 0.0247486 15.9408C0.297744 18.943 2.95184 21.4066 6.05815 21.0769C8.66283 20.8006 10.7996 18.468 10.4539 15.752C10.1729 13.5456 8.15738 11.732 5.82952 12.1025C4.02225 12.3901 2.52782 14.0987 2.94018 16.0422C3.08964 16.7464 3.49401 17.3574 4.06975 17.7719C4.64549 18.1863 5.44813 18.3896 6.23005 18.1406C6.74229 17.9775 7.15118 17.6503 7.42835 17.18C7.70552 16.7095 7.79547 15.9764 7.42487 15.3944C7.12612 14.925 6.85191 14.8321 6.42162 14.7597C6.20657 14.7235 5.90573 14.7101 5.58558 14.9184C5.26543 15.1267 5.09579 15.5573 5.09579 15.8618C5.09283 16.0942 5.18279 16.3182 5.34599 16.4836C5.26056 16.4591 5.17583 16.4246 5.08605 16.3599C4.87638 16.2089 4.69578 15.9349 4.64184 15.681C4.45758 14.8124 5.20384 13.9642 6.10252 13.821C7.38102 13.6174 8.56348 14.6825 8.72773 15.9714C8.94192 17.6541 7.55449 19.168 5.87424 19.3462C3.79066 19.5673 1.94599 17.855 1.75755 15.7828C1.53171 13.3004 3.56987 11.1255 6.03501 10.9294C6.05693 10.9277 6.07903 10.9266 6.10095 10.9254H40.8997C40.9216 10.9271 40.9435 10.9278 40.9653 10.9294C43.4304 11.1255 45.4686 13.3004 45.2427 15.7831C45.0543 17.8556 43.2096 19.5677 41.126 19.3465C39.4456 19.1682 38.0582 17.6543 38.2725 15.9717C38.4366 14.6826 39.6191 13.6178 40.8977 13.8214C41.7964 13.9644 42.5427 14.8126 42.3582 15.6813C42.3043 15.9352 42.1237 16.2094 41.914 16.3603C41.8243 16.4248 41.74 16.4594 41.6548 16.484C41.8176 16.3183 41.9074 16.0944 41.9043 15.8621C41.9043 15.5576 41.735 15.127 41.415 14.9187C41.0949 14.7105 40.7942 14.7239 40.579 14.7601C40.1487 14.8324 39.8743 14.9255 39.5754 15.3948C39.205 15.9766 39.2951 16.7098 39.5723 17.1803C39.8494 17.6508 40.2583 17.9781 40.7706 18.1409C41.5525 18.3897 42.3548 18.1867 42.9305 17.7722C43.5063 17.3578 43.9106 16.7467 44.0601 16.0426C44.4724 14.0992 42.978 12.3906 41.1709 12.1028C38.8431 11.7324 36.8273 13.5459 36.5465 15.7523C36.2006 18.4684 38.338 20.8008 40.9426 21.0772C44.0488 21.4068 46.7027 18.9434 46.9757 15.9409C47.2937 12.4433 44.5027 9.46543 41.1034 9.19504C41.0328 9.18426 40.9675 9.18861 40.8998 9.18721H6.10112C6.03344 9.18304 5.96193 9.19087 5.8972 9.19539L5.89703 9.19487ZM2.62091 0.490845C2.14051 0.490845 1.75094 0.880416 1.75094 1.36081V3.10075C1.75094 3.33146 1.84263 3.55278 2.00584 3.71581L5.48571 7.19568C5.64892 7.35889 5.87006 7.45059 6.10078 7.45059H40.8995C41.1302 7.45059 41.3515 7.35889 41.5146 7.19568L44.9944 3.71581C45.1576 3.55261 45.2493 3.33146 45.2493 3.10075V1.36081C45.2493 0.880416 44.8597 0.490845 44.3794 0.490845C44.3794 0.490845 2.62091 0.490845 2.62091 0.490845ZM3.49087 2.23078H43.5094V2.74023L40.539 5.71065H6.46094L3.49087 2.74023V2.23078ZM13.0605 14.4103C12.5801 14.4103 12.1905 14.7999 12.1905 15.2803V39.6394C12.1907 40.12 12.5803 40.5093 13.0609 40.5092C13.2326 40.5092 13.4003 40.4584 13.5432 40.3632L18.4917 37.0638C18.7294 36.9054 18.8742 36.6404 18.8792 36.3549L19.1501 20.5147C19.1501 20.5098 19.1501 20.505 19.1501 20.5001C19.1501 19.9294 20.9001 19.9132 20.8901 20.4844C20.8901 20.4897 20.8901 20.4949 20.8901 20.5001V34.4196C20.8902 34.9002 21.2798 35.2895 21.7604 35.2894C21.9321 35.2894 22.0998 35.2386 22.2427 35.1434L27.4625 31.6635C27.7045 31.5022 27.8498 31.2306 27.85 30.9397V20.5001C27.85 19.9191 29.5899 19.9191 29.5899 20.5001V29.1998C29.5901 29.6803 29.9798 30.0697 30.4604 30.0694C30.5952 30.0694 30.7283 30.0379 30.8491 29.9775L34.329 28.2376C34.6235 28.0902 34.8097 27.7892 34.8099 27.4597V15.2801C34.8099 14.7997 34.4203 14.4102 33.9399 14.4102H13.0607H13.0605V14.4103ZM13.9305 16.1503H33.0698V26.9219L31.3298 27.7918V20.5001C31.3298 17.6 26.11 17.6 26.11 20.5001V30.4741L22.6302 32.7941V20.5001V20.5154C22.6818 17.6055 17.4107 17.5897 17.4107 20.5001V20.4851L17.1476 35.8693L13.9308 38.0139V16.1503H13.9305Z" fill="black"/>
</svg>
