<svg width="47" height="47" viewBox="0 0 47 47" fill="none" xmlns="http://www.w3.org/2000/svg">
<g clip-path="url(#clip0_1_597)">
<path d="M5.89703 12.1949C2.49772 12.4654 -0.293312 15.4432 0.0247486 18.9408C0.297744 21.943 2.95184 24.4066 6.05815 24.0769C8.66283 23.8006 10.7996 21.468 10.4539 18.752C10.1729 16.5456 8.15738 14.732 5.82952 15.1025C4.02225 15.3901 2.52782 17.0987 2.94018 19.0422C3.08964 19.7464 3.49401 20.3574 4.06975 20.7719C4.64549 21.1863 5.44813 21.3896 6.23005 21.1406C6.74229 20.9775 7.15118 20.6503 7.42835 20.18C7.70552 19.7095 7.79547 18.9764 7.42487 18.3944C7.12612 17.925 6.85191 17.8321 6.42162 17.7597C6.20657 17.7235 5.90573 17.7101 5.58558 17.9184C5.26543 18.1267 5.09579 18.5573 5.09579 18.8618C5.09283 19.0942 5.18279 19.3182 5.34599 19.4836C5.26056 19.4591 5.17583 19.4246 5.08605 19.3599C4.87638 19.2089 4.69578 18.9349 4.64184 18.681C4.45758 17.8124 5.20384 16.9642 6.10252 16.821C7.38102 16.6174 8.56348 17.6825 8.72773 18.9714C8.94192 20.6541 7.55449 22.168 5.87424 22.3462C3.79066 22.5673 1.94599 20.855 1.75755 18.7828C1.53171 16.3004 3.56987 14.1255 6.03501 13.9294C6.05693 13.9277 6.07903 13.9266 6.10095 13.9254H40.8997C40.9216 13.9271 40.9435 13.9278 40.9653 13.9294C43.4304 14.1255 45.4686 16.3004 45.2427 18.7831C45.0543 20.8556 43.2096 22.5677 41.126 22.3465C39.4456 22.1682 38.0582 20.6543 38.2725 18.9717C38.4366 17.6826 39.6191 16.6178 40.8977 16.8214C41.7964 16.9644 42.5427 17.8126 42.3582 18.6813C42.3043 18.9352 42.1237 19.2094 41.914 19.3603C41.8243 19.4248 41.74 19.4594 41.6548 19.484C41.8176 19.3183 41.9074 19.0944 41.9043 18.8621C41.9043 18.5576 41.735 18.127 41.415 17.9187C41.0949 17.7105 40.7942 17.7239 40.579 17.7601C40.1487 17.8324 39.8743 17.9255 39.5754 18.3948C39.205 18.9766 39.2951 19.7098 39.5723 20.1803C39.8494 20.6508 40.2583 20.9781 40.7706 21.1409C41.5525 21.3897 42.3548 21.1867 42.9305 20.7722C43.5063 20.3578 43.9106 19.7467 44.0601 19.0426C44.4724 17.0992 42.978 15.3906 41.1709 15.1028C38.8431 14.7324 36.8273 16.5459 36.5465 18.7523C36.2006 21.4684 38.338 23.8008 40.9426 24.0772C44.0488 24.4068 46.7027 21.9434 46.9757 18.9409C47.2937 15.4433 44.5027 12.4654 41.1034 12.195C41.0328 12.1843 40.9675 12.1886 40.8998 12.1872H6.10112C6.03344 12.183 5.96193 12.1909 5.8972 12.1954L5.89703 12.1949ZM2.62091 3.49084C2.14051 3.49084 1.75094 3.88042 1.75094 4.36081V6.10075C1.75094 6.33146 1.84263 6.55278 2.00584 6.71581L5.48571 10.1957C5.64892 10.3589 5.87006 10.4506 6.10078 10.4506H40.8995C41.1302 10.4506 41.3515 10.3589 41.5146 10.1957L44.9944 6.71581C45.1576 6.55261 45.2493 6.33146 45.2493 6.10075V4.36081C45.2493 3.88042 44.8597 3.49084 44.3794 3.49084C44.3794 3.49084 2.62091 3.49084 2.62091 3.49084ZM3.49087 5.23078H43.5094V5.74023L40.539 8.71065H6.46094L3.49087 5.74023V5.23078ZM13.0605 17.4103C12.5801 17.4103 12.1905 17.7999 12.1905 18.2803V42.6394C12.1907 43.12 12.5803 43.5093 13.0609 43.5092C13.2326 43.5092 13.4003 43.4584 13.5432 43.3632L18.4917 40.0638C18.7294 39.9054 18.8742 39.6404 18.8792 39.3549L19.1501 23.5147C19.1501 23.5098 19.1501 23.505 19.1501 23.5001C19.1501 22.9294 20.9001 22.9132 20.8901 23.4844C20.8901 23.4897 20.8901 23.4949 20.8901 23.5001V37.4196C20.8902 37.9002 21.2798 38.2895 21.7604 38.2894C21.9321 38.2894 22.0998 38.2386 22.2427 38.1434L27.4625 34.6635C27.7045 34.5022 27.8498 34.2306 27.85 33.9397V23.5001C27.85 22.9191 29.5899 22.9191 29.5899 23.5001V32.1998C29.5901 32.6803 29.9798 33.0697 30.4604 33.0694C30.5952 33.0694 30.7283 33.0379 30.8491 32.9775L34.329 31.2376C34.6235 31.0902 34.8097 30.7892 34.8099 30.4597V18.2801C34.8099 17.7997 34.4203 17.4102 33.9399 17.4102H13.0607H13.0605V17.4103ZM13.9305 19.1503H33.0698V29.9219L31.3298 30.7918V23.5001C31.3298 20.6 26.11 20.6 26.11 23.5001V33.4741L22.6302 35.7941V23.5001V23.5154C22.6818 20.6055 17.4107 20.5897 17.4107 23.5001V23.4851L17.1476 38.8693L13.9308 41.0139V19.1503H13.9305Z" fill="black"/>
</g>
<defs>
<clipPath id="clip0_1_597">
<rect width="47" height="47" fill="white"/>
</clipPath>
</defs>
</svg>
