<svg width="38" height="38" viewBox="0 0 38 38" fill="none" xmlns="http://www.w3.org/2000/svg">
<g clip-path="url(#clip0_1_604)">
<path d="M37.2082 18.2084C37.6515 18.2084 37.9998 18.5567 37.9998 19C37.9998 19.4434 37.6515 19.7917 37.2082 19.7917H36.4165V18.2084H37.2082Z" fill="black"/>
<path d="M19.7915 18.2084H36.4165V19.7917H19.7915V18.2084Z" fill="black"/>
<path d="M34.0417 38H19C19.4433 38 19.7917 37.6517 19.7917 37.2083V36.4167H34.0417C35.3558 36.4167 36.4167 35.3558 36.4167 34.0417V19.7917H37.2083C37.6517 19.7917 38 19.4433 38 19V34.0417C38 36.2267 36.2267 38 34.0417 38Z" fill="black"/>
<path d="M38 3.95833V19C38 18.5567 37.6517 18.2083 37.2083 18.2083H36.4167V3.95833C36.4167 2.64417 35.3558 1.58333 34.0417 1.58333H19.7917V0.791667C19.7917 0.348333 19.4433 0 19 0H34.0417C36.2267 0 38 1.77333 38 3.95833Z" fill="black"/>
<path d="M31.6665 9.5C32.1098 9.5 32.4582 9.84833 32.4582 10.2917C32.4582 10.735 32.1098 11.0833 31.6665 11.0833H25.3332C24.8898 11.0833 24.5415 10.735 24.5415 10.2917C24.5415 9.84833 24.8898 9.5 25.3332 9.5H31.6665Z" fill="black"/>
<path d="M31.6665 25.3334C32.1098 25.3334 32.4582 25.6817 32.4582 26.125C32.4582 26.5684 32.1098 26.9167 31.6665 26.9167H25.3332C24.8898 26.9167 24.5415 26.5684 24.5415 26.125C24.5415 25.6817 24.8898 25.3334 25.3332 25.3334H31.6665Z" fill="black"/>
<path d="M31.6665 30.0834C32.1098 30.0834 32.4582 30.4317 32.4582 30.875C32.4582 31.3184 32.1098 31.6667 31.6665 31.6667H25.3332C24.8898 31.6667 24.5415 31.3184 24.5415 30.875C24.5415 30.4317 24.8898 30.0834 25.3332 30.0834H31.6665Z" fill="black"/>
<path d="M19.7918 36.4167V37.2084C19.7918 37.6517 19.4435 38.0001 19.0002 38.0001C18.5568 38.0001 18.2085 37.6517 18.2085 37.2084V36.4167H19.7918Z" fill="black"/>
<path d="M18.2085 19.7916H19.7918V36.4166H18.2085V19.7916Z" fill="black"/>
<path d="M18.2085 18.2084H19.7918V19.7917H18.2085V18.2084Z" fill="black"/>
<path d="M18.2085 1.58337H19.7918V18.2084H18.2085V1.58337Z" fill="black"/>
<path d="M19.7918 0.791667V1.58333H18.2085V0.791667C18.2085 0.348333 18.5568 0 19.0002 0C19.4435 0 19.7918 0.348333 19.7918 0.791667Z" fill="black"/>
<path d="M1.5835 18.2084H18.2085V19.7917H1.5835V18.2084Z" fill="black"/>
<path d="M12.6665 9.5C13.1098 9.5 13.4582 9.84833 13.4582 10.2917C13.4582 10.735 13.1098 11.0833 12.6665 11.0833H10.2915V9.5H12.6665Z" fill="black"/>
<path d="M12.4292 30.3208C12.7458 30.6217 12.7458 31.1283 12.4292 31.4292C12.2867 31.5875 12.0808 31.6667 11.875 31.6667C11.6692 31.6667 11.4633 31.5875 11.3208 31.4292L9.5 29.6083L10.6083 28.5L12.4292 30.3208Z" fill="black"/>
<path d="M11.3208 25.5709C11.6217 25.2542 12.1283 25.2542 12.4292 25.5709C12.7458 25.8717 12.7458 26.3784 12.4292 26.6792L10.6083 28.5L9.5 27.3917L11.3208 25.5709Z" fill="black"/>
<path d="M8.38672 28.4984L9.49511 27.39L10.6035 28.4984L9.49511 29.6068L8.38672 28.4984Z" fill="black"/>
<path d="M10.2918 11.0834V13.4584C10.2918 13.9017 9.9435 14.25 9.50016 14.25C9.05683 14.25 8.7085 13.9017 8.7085 13.4584V11.0834H10.2918Z" fill="black"/>
<path d="M8.7085 9.5H10.2918V11.0833H8.7085V9.5Z" fill="black"/>
<path d="M10.2918 7.12504V9.50004H8.7085V7.12504C8.7085 6.68171 9.05683 6.33337 9.50016 6.33337C9.9435 6.33337 10.2918 6.68171 10.2918 7.12504Z" fill="black"/>
<path d="M9.50016 27.3917L8.39183 28.5L6.571 26.6792C6.25433 26.3784 6.25433 25.8717 6.571 25.5709C6.87183 25.2542 7.3785 25.2542 7.67933 25.5709L9.50016 27.3917Z" fill="black"/>
<path d="M8.70817 9.5V11.0833H6.33317C5.88984 11.0833 5.5415 10.735 5.5415 10.2917C5.5415 9.84833 5.88984 9.5 6.33317 9.5H8.70817Z" fill="black"/>
<path d="M7.67933 31.4292C7.53683 31.5875 7.331 31.6667 7.12516 31.6667C6.91933 31.6667 6.7135 31.5875 6.571 31.4292C6.25433 31.1283 6.25433 30.6217 6.571 30.3208L8.39183 28.5L9.50016 29.6083L7.67933 31.4292Z" fill="black"/>
<path d="M1.58333 18.2084V19.7917H0.791667C0.348333 19.7917 0 19.4434 0 19C0 18.5567 0.348333 18.2084 0.791667 18.2084H1.58333Z" fill="black"/>
<path d="M0 3.95833C0 1.77333 1.77333 0 3.95833 0H19C18.5567 0 18.2083 0.348333 18.2083 0.791667V1.58333H3.95833C2.64417 1.58333 1.58333 2.64417 1.58333 3.95833V18.2083H0.791667C0.348333 18.2083 0 18.5567 0 19V3.95833Z" fill="black"/>
<path d="M1.58333 34.0417C1.58333 35.3558 2.64417 36.4167 3.95833 36.4167H18.2083V37.2083C18.2083 37.6517 18.5567 38 19 38H3.95833C1.77333 38 0 36.2267 0 34.0417V19C0 19.4433 0.348333 19.7917 0.791667 19.7917H1.58333V34.0417Z" fill="black"/>
</g>
<defs>
<clipPath id="clip0_1_604">
<rect width="38" height="38" fill="white"/>
</clipPath>
</defs>
</svg>
