<svg width="38" height="38" viewBox="0 0 38 38" fill="none" xmlns="http://www.w3.org/2000/svg">
<g clip-path="url(#clip0_1_632)">
<path d="M28.7721 34.4388C28.5665 34.0845 28.1125 33.9638 27.7577 34.1694L27.7291 34.1858C27.3747 34.3915 27.2541 34.8456 27.4597 35.2002C27.5973 35.4375 27.8463 35.57 28.1022 35.57C28.2286 35.57 28.3568 35.5376 28.474 35.4696L28.5026 35.4531C28.857 35.2475 28.9777 34.7933 28.7721 34.4388Z" fill="black"/>
<path d="M35.4543 9.50685C32.9174 5.11273 28.8212 1.96963 23.9202 0.656407C19.0194 -0.65682 13.9004 0.017161 9.50625 2.55403C5.1122 5.09091 1.96904 9.18719 0.655886 14.0881C-0.657267 18.989 0.0166395 24.1081 2.55351 28.5021C4.82913 32.4436 8.44596 35.4392 12.7377 36.9368C14.7721 37.6466 16.8959 38.0008 19.0164 38.0008C21.322 38.0008 23.6235 37.5818 25.7989 36.7457C26.1815 36.5987 26.3724 36.1693 26.2253 35.7868C26.0782 35.4042 25.6488 35.213 25.2663 35.3604C19.4758 37.586 13.2071 36.5747 8.52367 33.0593L9.18859 29.5884L9.509 29.4844C10.7197 29.091 11.3847 27.786 10.9915 26.5752L10.7564 25.8516C10.702 25.6842 10.7023 25.5072 10.7571 25.3399C10.9634 24.7111 10.8897 24.0232 10.5549 23.4523C10.2201 22.8814 9.65565 22.4812 9.00616 22.3542L7.33105 22.0269L4.09897 19.5695C3.90533 19.4223 3.65187 19.3793 3.42046 19.4544L1.52818 20.0691C1.48803 19.3923 1.48743 18.7157 1.52558 18.0427C1.60025 18.1122 1.64886 18.1595 1.67877 18.1905C1.7158 18.2522 1.76167 18.3088 1.81541 18.3577C1.96993 18.4985 2.10991 18.5623 2.40381 18.5623C2.67389 18.5622 3.07371 18.5084 3.73389 18.4109C4.36 18.3183 4.98284 18.214 4.989 18.213C5.2386 18.1712 5.4496 18.005 5.54891 17.7723C5.64821 17.5395 5.62201 17.2723 5.47944 17.0631L4.56944 15.7284L5.87287 14.7963C5.95971 14.7342 6.03214 14.6541 6.08521 14.5615L8.10567 11.0343L8.92007 10.1616C9.75228 9.26964 9.98978 7.96466 9.52503 6.83683C9.25086 6.17161 8.772 5.61778 8.17306 5.24454C8.82173 4.73458 9.51337 4.26374 10.2484 3.83943C12.9454 2.28232 15.8886 1.52774 18.8009 1.49886L17.4756 3.16129L12.5612 4.88413C12.3617 4.95405 12.2014 5.1059 12.1208 5.30139L10.7483 8.62847C10.6509 8.86486 10.6818 9.13457 10.8303 9.34268L12.8348 12.1505C12.5477 12.4124 12.2683 12.7939 11.9345 13.2676C11.7882 13.4753 11.65 13.6715 11.5545 13.7815C11.4714 13.8772 11.3883 13.9707 11.3059 14.0634C10.8748 14.5484 10.429 15.05 10.1123 15.7201C9.416 17.194 9.55664 18.9071 10.4793 20.1909C11.3715 21.4322 12.8424 22.0633 14.4123 21.8786C14.668 21.8486 14.9065 21.7896 15.1372 21.7325C15.7735 21.575 15.9751 21.5593 16.1792 21.7503C16.2785 21.8433 16.2876 21.8609 16.2856 22.1763C16.2842 22.377 16.2826 22.6266 16.3518 22.9117C16.4626 23.3678 16.749 23.683 16.9791 23.9362C17.0935 24.062 17.2118 24.1922 17.2482 24.2796C17.4797 24.8343 17.3789 25.1415 17.1581 25.8146C17.1391 25.8722 17.1198 25.931 17.1005 25.9913C16.7649 27.03 17.2326 28.0603 17.6453 28.9692C17.7793 29.2643 17.9059 29.5429 17.9888 29.7892C18.6561 31.7693 19.1563 32.2228 19.5578 32.4053C19.768 32.5009 19.9856 32.5429 20.2055 32.5428C21.2753 32.5427 22.3917 31.5494 22.9046 30.9196C23.2267 30.5242 23.306 30.1282 23.3639 29.839C23.3928 29.6952 23.4155 29.5816 23.4589 29.5074C23.5252 29.3938 23.6034 29.3058 23.7023 29.1943C23.9013 28.9703 24.1489 28.6915 24.3093 28.1862C24.4312 27.8023 24.5197 27.7082 24.813 27.3959C24.864 27.3416 24.9184 27.2836 24.9769 27.2201C25.9654 26.1444 25.7108 25.3227 25.4412 24.4527C25.2143 23.7207 25.6111 23.2525 26.5706 22.359C26.9865 21.9717 27.4166 21.5712 27.749 21.09C27.8945 20.8793 28.337 20.2386 28.0632 19.6035C27.7947 18.9808 27.1124 18.8762 26.5642 18.7921C26.3477 18.7589 26.0206 18.7087 25.9165 18.6407C25.4573 18.3404 25.1764 17.7139 24.9046 17.1079C24.8505 16.9873 24.7972 16.8682 24.7431 16.7527C24.6466 16.5465 24.5502 16.2971 24.4481 16.033C24.1781 15.3341 23.8721 14.542 23.3512 13.9898C22.8829 13.4937 22.0002 13.2547 21.2215 13.0437C20.9595 12.9729 20.7123 12.9059 20.5493 12.8457C20.4126 12.7953 20.2643 12.7861 20.1229 12.8194C19.7438 12.9082 19.5074 13.0061 19.3318 13.1468C19.2854 13.184 19.148 13.3061 19.0676 13.5023C18.7958 13.3719 18.4222 13.1229 18.1923 12.9697C18.1875 12.9665 18.1827 12.9633 18.178 12.9601C18.2555 12.65 18.1853 12.4012 18.1118 12.2457C17.6973 11.3688 16.321 11.4374 16.0495 11.4605C15.8953 11.4734 15.7002 11.4803 15.4938 11.4876C15.1696 11.4991 14.8113 11.512 14.4567 11.5518L14.475 11.5009C14.7441 10.7511 15.4602 10.2473 16.2568 10.2473H16.6787C17.0885 10.2473 17.4209 9.9149 17.4209 9.50514C17.4209 9.09538 17.0885 8.76303 16.6787 8.76303H16.2568C15.0741 8.76303 13.991 9.3855 13.384 10.3653L12.277 8.81461L13.3661 6.17472L18.1682 4.49114C18.2999 4.44498 18.416 4.3626 18.503 4.25342L20.6378 1.57568C26.0924 2.09454 31.2269 5.1528 34.1691 10.2488C34.9527 11.6062 35.5325 13.0352 35.9179 14.4968L35.6033 14.7773C35.1926 15.1438 34.952 15.6693 34.9428 16.2193C34.9427 16.2254 34.9426 16.2313 34.9424 16.2372L34.4298 14.8277C34.3534 14.6173 34.2409 14.4244 34.0956 14.2544L33.1813 13.1839C32.8268 12.769 32.3107 12.5311 31.7651 12.5311H30.646C30.2487 12.5311 29.8856 12.7487 29.6982 13.0988C29.5108 13.449 29.5313 13.8719 29.7516 14.2023L29.8649 14.3723C29.1417 14.9942 28.3053 15.4919 27.4146 15.8275L25.8805 12.8889V12.2333C25.8805 12.0306 25.7976 11.8365 25.6508 11.6966L24.2694 10.3778C24.1932 10.3051 24.1023 10.2494 24.003 10.2145L22.7594 9.77745C22.3725 9.64133 21.949 9.84491 21.8132 10.2315C21.6773 10.6183 21.8806 11.0418 22.2673 11.1777L23.3601 11.5618L24.3963 12.5509V13.0711C24.3963 13.1906 24.4253 13.3085 24.4806 13.4145L26.4012 17.0933C26.5739 17.4244 26.9659 17.5756 27.3158 17.4462L27.875 17.24C29.1742 16.7608 30.3784 15.9901 31.3575 15.0111C31.6076 14.7609 31.6465 14.3691 31.4502 14.0747L31.4107 14.0154H31.7651C31.8759 14.0154 31.9808 14.0637 32.0528 14.148L32.9671 15.2185C32.9966 15.253 33.0193 15.2921 33.0349 15.3349L34.0439 18.1094C34.1306 18.3478 34.3331 18.5253 34.5805 18.5802C34.634 18.592 34.6878 18.5978 34.7413 18.5978C34.936 18.5978 35.1255 18.5212 35.266 18.3804L35.7463 17.9002C36.0504 17.596 36.2598 17.2111 36.3599 16.7844C37.1026 22.7371 34.7685 28.8949 29.8349 32.7672C29.5124 33.0202 29.4562 33.4866 29.7093 33.8091C29.9623 34.1316 30.4287 34.1879 30.7513 33.9347C34.3132 31.1391 36.7602 27.1406 37.6415 22.6756C38.5311 18.1677 37.7544 13.4908 35.4543 9.50685ZM3.50967 20.986L6.56993 23.3129C6.66041 23.3817 6.76535 23.4287 6.87683 23.4505L8.72131 23.8109C8.95673 23.8569 9.15312 23.9961 9.27446 24.2031C9.39581 24.4099 9.42134 24.6493 9.34668 24.8772C9.19305 25.3457 9.1923 25.8413 9.34468 26.3101L9.5798 27.0336C9.7203 27.466 9.48265 27.9322 9.05032 28.0727L8.31281 28.3123C8.0555 28.3959 7.86416 28.6129 7.81332 28.8785L7.21972 31.977C5.91473 30.7826 4.76894 29.371 3.83891 27.7601C2.70425 25.795 1.99531 23.699 1.68285 21.5796L3.50967 20.986ZM7.83492 9.14897L6.96188 10.0843C6.92292 10.1261 6.88885 10.1723 6.86042 10.2219L4.87789 13.6831L3.11587 14.9431C2.78767 15.1778 2.70707 15.6315 2.93433 15.9648L3.59332 16.9315C3.21346 16.988 2.87258 17.0346 2.64591 17.0594C2.60235 17.0176 2.55678 16.9752 2.50965 16.9314C2.33323 16.7675 2.08808 16.5487 1.72263 16.2288C2.32536 12.4984 4.12294 8.98398 6.95008 6.30134C7.49143 6.47182 7.93571 6.87564 8.15272 7.40237C8.3969 7.99479 8.27207 8.68042 7.83492 9.14897ZM13.886 13.2045C14.217 13.0182 14.9853 12.991 15.5462 12.9711C15.7711 12.9631 15.9835 12.9556 16.1732 12.9397C16.2733 12.9313 16.3845 12.9329 16.4893 12.941C16.4425 13.0613 16.4273 13.1932 16.4476 13.3241C16.4833 13.5544 16.6253 13.7545 16.8307 13.8644C16.97 13.9389 17.1638 14.0681 17.3689 14.2049C17.9489 14.5916 18.6064 15.0298 19.2241 15.0692C19.7858 15.1056 20.0983 14.7855 20.2322 14.6492C20.2429 14.6383 20.253 14.6275 20.2637 14.6176C20.3391 14.5562 20.4097 14.4738 20.4623 14.3744C20.5809 14.4083 20.7056 14.4421 20.8334 14.4768C21.2729 14.5957 22.0909 14.8172 22.2716 15.0087C22.5926 15.349 22.8428 15.9967 23.0636 16.5681C23.1751 16.8569 23.2805 17.1294 23.3987 17.3821C23.4495 17.4906 23.4995 17.6023 23.5502 17.7154C23.8927 18.4792 24.2808 19.3451 25.1043 19.8833C25.4777 20.1274 25.9354 20.1975 26.3393 20.2595C26.3881 20.267 26.4441 20.2756 26.5009 20.285C26.2612 20.6194 25.9199 20.9372 25.5592 21.273C24.6405 22.1286 23.4971 23.1935 24.0237 24.8923C24.2722 25.6945 24.2838 25.7812 23.8841 26.2159C23.8297 26.2752 23.7789 26.3293 23.7313 26.3799C23.389 26.7443 23.1186 27.0321 22.8948 27.7372C22.8298 27.942 22.7455 28.0368 22.5926 28.209C22.4703 28.3468 22.3179 28.5184 22.1774 28.7588C22.0091 29.0469 21.9534 29.3244 21.9088 29.5473C21.8648 29.7666 21.8398 29.8766 21.7538 29.9823C21.5577 30.2229 21.1921 30.5724 20.8168 30.8108C20.468 31.0323 20.2643 31.0626 20.1949 31.0584C20.1157 30.9735 19.8289 30.6018 19.3955 29.3153C19.2886 28.998 19.1403 28.6714 18.9969 28.3556C18.6808 27.6594 18.354 26.9395 18.513 26.4475C18.5318 26.3895 18.5503 26.3328 18.5686 26.2773C18.8226 25.5032 19.0623 24.7722 18.6182 23.7079C18.4829 23.3838 18.2676 23.147 18.0778 22.938C17.955 22.8028 17.8159 22.6497 17.7944 22.5615C17.7683 22.4539 17.7691 22.3298 17.7701 22.186C17.7726 21.7982 17.7764 21.2123 17.1939 20.6668C16.3726 19.898 15.4149 20.1348 14.781 20.2916C14.5864 20.3397 14.4025 20.3852 14.2395 20.4044C13.1969 20.5266 12.266 20.1332 11.6849 19.3245C11.0769 18.4786 10.9887 17.3403 11.4546 16.354C11.6802 15.8767 12.0209 15.4932 12.4155 15.0494C12.5016 14.9524 12.5886 14.8545 12.6756 14.7543C12.8203 14.5875 12.9796 14.3616 13.148 14.1224C13.3491 13.837 13.7234 13.3056 13.886 13.2045Z" fill="black"/>
<path d="M30.4314 25.5519L30.0744 24.206C29.9963 23.9121 29.747 23.6956 29.4451 23.6595C29.1429 23.6242 28.8498 23.7753 28.7047 24.0425C28.6234 24.1925 28.5501 24.3513 28.4793 24.5049C28.3602 24.7632 28.237 25.0304 28.1088 25.1779C28.0368 25.2607 27.8519 25.35 27.6732 25.4362C27.2459 25.6424 26.6607 25.9248 26.4371 26.6375C26.2983 27.0795 26.3501 27.4292 26.388 27.6845C26.4207 27.9059 26.4283 27.9827 26.369 28.1219L26.3616 28.1392C26.1253 28.6935 25.6858 29.7255 26.3021 30.6029C26.7419 31.229 27.2042 31.39 27.5635 31.39C27.6337 31.3902 27.7 31.384 27.7614 31.374C28.5184 31.2503 29.0875 30.4628 29.5526 28.8956L30.4256 25.9535C30.4644 25.8227 30.4664 25.6837 30.4314 25.5519ZM28.1297 28.4734C27.8927 29.2724 27.683 29.6455 27.5619 29.8108C27.5479 29.793 27.5328 29.7728 27.5166 29.7497C27.3748 29.5477 27.5868 29.0502 27.727 28.7208L27.7345 28.7035C27.9608 28.1725 27.9003 27.7648 27.8563 27.467C27.828 27.2763 27.8179 27.1944 27.8533 27.0818C27.8824 26.9893 28.0563 26.8994 28.3183 26.773C28.4344 26.7169 28.5623 26.6552 28.6914 26.5805L28.1297 28.4734Z" fill="black"/>
<path d="M20.041 8.82164L19.9909 8.80413C19.6044 8.66875 19.1806 8.87204 19.045 9.25879C18.9093 9.64562 19.1129 10.069 19.4996 10.2047L19.5497 10.2222C19.6309 10.2507 19.7137 10.2642 19.7953 10.2642C20.1017 10.2642 20.3885 10.073 20.4956 9.76756C20.6313 9.38073 20.4277 8.95724 20.041 8.82164Z" fill="black"/>
</g>
<defs>
<clipPath id="clip0_1_632">
<rect width="38" height="38" fill="white"/>
</clipPath>
</defs>
</svg>
