<svg width="38" height="38" viewBox="0 0 38 38" fill="none" xmlns="http://www.w3.org/2000/svg">
<path d="M34.4839 22.6258C35.0916 21.7768 34.8961 20.5959 34.047 19.9882C33.5297 19.618 32.8609 19.5327 32.2672 19.7613C32.0342 19.5079 31.7979 19.2546 31.5465 19.0013C35.1527 15.3501 36.7747 11.7813 35.458 9.50127C34.1413 7.22127 30.2393 6.84127 25.2746 8.13897C23.9136 3.18883 21.6342 0 19.0008 0C16.3674 0 14.0861 3.19137 12.7308 8.14277C11.9075 7.92617 11.0949 7.74187 10.3241 7.61647C6.37658 6.9749 3.61778 7.64497 2.54935 9.5C1.68865 10.9915 2.03635 13.022 3.52405 15.3837C2.91842 16.232 3.11515 17.4107 3.96342 18.0164C4.48038 18.3854 5.14823 18.4697 5.74071 18.2406C5.97315 18.494 6.20875 18.7473 6.45955 19.0006C2.85081 22.6512 1.22948 26.22 2.54618 28.5C3.36951 29.9206 5.18908 30.6046 7.64705 30.6046C9.36607 30.5716 11.0741 30.3224 12.7308 29.8629C14.088 34.8112 16.3674 38 19.0008 38C21.6342 38 23.9155 34.8086 25.274 29.8572C26.0973 30.0738 26.9099 30.2581 27.6806 30.3835C28.573 30.5347 29.4761 30.614 30.3812 30.6204C32.8835 30.6204 34.6454 29.8959 35.4478 28.5C36.3123 27.0104 35.9659 24.9837 34.4839 22.6258ZM32.9341 20.9C33.2839 20.9 33.5675 21.1836 33.5675 21.5333C33.5675 21.8831 33.2839 22.1667 32.9341 22.1667C32.5844 22.1667 32.3008 21.8831 32.3008 21.5333C32.3008 21.1836 32.5844 20.9 32.9341 20.9ZM25.0536 13.8067C24.3208 13.3291 23.5728 12.8611 22.8008 12.4133C22.0288 11.9656 21.2472 11.5571 20.4695 11.1625C21.7419 10.6014 23.0448 10.1124 24.3721 9.6976C24.6764 11.0534 24.9039 12.4253 25.0536 13.8067ZM19.0008 1.26667C20.878 1.26667 22.835 3.9539 24.0675 8.4797C22.3328 9.01677 20.6371 9.67274 18.9926 10.443C17.3531 9.67615 15.663 9.02247 13.9341 8.48667C15.1647 3.95643 17.123 1.26667 19.0008 1.26667ZM13.6257 9.71597C14.9494 10.1251 16.2491 10.608 17.5188 11.1625C16.7512 11.5526 15.9785 11.971 15.2008 12.4178C14.4231 12.8645 13.6723 13.3257 12.9487 13.8016C13.0978 12.4281 13.3238 11.0641 13.6257 9.71597ZM5.46331 16.9588C5.35177 17.0503 5.2118 17.1002 5.06748 17.1C4.71772 17.1 4.43415 16.8164 4.43415 16.4667C4.4328 16.268 4.52709 16.081 4.68748 15.9638C4.69318 15.9594 4.70078 15.9587 4.70711 15.9543C4.81035 15.8749 4.93725 15.8323 5.06748 15.8333C5.41724 15.8349 5.69955 16.1198 5.69796 16.4695C5.69709 16.6595 5.61096 16.8391 5.46331 16.9588ZM6.03189 14.8293C5.73961 14.6573 5.40663 14.5666 5.06748 14.5667C4.88943 14.5666 4.71226 14.5915 4.54118 14.6408C3.36888 12.7547 3.04968 11.1663 3.64691 10.1333C4.42211 8.78687 6.78001 8.3258 10.1151 8.86667C10.8542 8.98637 11.6282 9.16243 12.4192 9.37333C12.0208 11.1346 11.744 12.9213 11.5908 14.7206C10.1079 15.7546 8.69767 16.8892 7.37028 18.1165C7.14355 17.8879 6.91618 17.6592 6.70528 17.4306C7.23768 16.5264 6.93621 15.3617 6.03189 14.8293ZM11.4717 21.6283C10.3589 20.809 9.29205 19.929 8.27595 18.9924C9.29134 18.0567 10.3585 17.1788 11.4724 16.3628C11.4246 17.2237 11.4008 18.1028 11.4008 19C11.4008 19.8943 11.4261 20.7733 11.4717 21.6283ZM3.64311 27.8667C2.70515 26.2415 4.05795 23.2041 7.35761 19.8753C8.68975 21.1015 10.1032 22.2363 11.5883 23.2718C11.7425 25.0811 12.0216 26.8775 12.4236 28.6482C7.88771 29.8433 4.58171 29.4918 3.64311 27.8667ZM12.948 24.1933C13.6808 24.6715 14.4288 25.1395 15.2008 25.5867C15.9728 26.0338 16.7544 26.4429 17.5321 26.8375C16.2597 27.3986 14.9568 27.8876 13.6295 28.3024C13.3253 26.9466 13.0978 25.5747 12.948 24.1933ZM19.0008 36.7333C17.1236 36.7333 15.166 34.0455 13.9341 29.519C15.6686 28.9824 17.3639 28.3265 19.0078 27.5557C20.6477 28.3229 22.3382 28.977 24.0675 29.5133C22.8369 34.0436 20.8786 36.7333 19.0008 36.7333ZM24.3759 28.284C23.0522 27.875 21.7525 27.3921 20.4828 26.8375C21.2504 26.4474 22.0231 26.029 22.8008 25.5822C23.5785 25.1355 24.3293 24.6743 25.0529 24.1984C24.9039 25.5719 24.6779 26.9359 24.3759 28.284ZM25.203 22.5777C24.2575 23.2231 23.2441 23.8621 22.1675 24.4847C21.0908 25.1066 20.0353 25.6652 19.0008 26.1605C17.9469 25.6538 16.8861 25.0952 15.8341 24.4872C14.7822 23.8792 13.7695 23.2364 12.7979 22.572C12.7137 21.432 12.6675 20.2413 12.6675 19C12.6675 17.7587 12.7137 16.5636 12.7986 15.4223C13.7441 14.7769 14.7575 14.1379 15.8341 13.5153C16.9108 12.8928 17.9678 12.3373 19.0008 11.8395C20.0547 12.3462 21.1155 12.9048 22.1675 13.5128C23.2194 14.1208 24.2328 14.7624 25.2037 15.4267C25.2879 16.5667 25.3341 17.7587 25.3341 19C25.3341 20.2413 25.2879 21.4364 25.203 22.5777ZM34.3585 10.1333C35.2965 11.7585 33.9437 14.7959 30.644 18.1247C29.3119 16.8985 27.8984 15.7637 26.4133 14.7282C26.2591 12.919 25.98 11.1225 25.578 9.3518C30.1139 8.1567 33.4199 8.5082 34.3585 10.1333ZM26.5299 16.3704C27.644 17.1891 28.7123 18.0681 29.7301 19.0038C28.7134 19.9409 27.6447 20.8201 26.5292 21.6372C26.577 20.7767 26.6008 19.8977 26.6008 19C26.6008 18.1051 26.5755 17.2267 26.5299 16.3704ZM34.3547 27.8667C33.5789 29.2125 31.2222 29.6736 27.8865 29.1333C27.1474 29.0136 26.3734 28.8376 25.5824 28.6267C25.9809 26.8654 26.2576 25.0787 26.4108 23.2794C27.8943 22.245 29.3049 21.1097 30.6326 19.8816C30.8644 20.1153 31.0816 20.3484 31.297 20.5821C31.1262 20.8701 31.0355 21.1985 31.0341 21.5333C31.0341 22.5827 31.8848 23.4333 32.9341 23.4333C33.1085 23.4309 33.2815 23.404 33.4484 23.3535C34.6213 25.2402 34.9519 26.8337 34.3547 27.8667Z" fill="black"/>
<path d="M19.0006 16.4667C17.6015 16.4667 16.4673 17.6009 16.4673 19C16.4673 20.3991 17.6015 21.5333 19.0006 21.5333C20.3997 21.5333 21.534 20.3991 21.534 19C21.534 17.6009 20.3997 16.4667 19.0006 16.4667ZM19.0006 20.2667C18.301 20.2667 17.734 19.6996 17.734 19C17.734 18.3004 18.301 17.7333 19.0006 17.7333C19.7002 17.7333 20.2673 18.3004 20.2673 19C20.2673 19.6996 19.7002 20.2667 19.0006 20.2667Z" fill="black"/>
</svg>
