<svg width="44" height="44" viewBox="0 0 44 44" fill="none" xmlns="http://www.w3.org/2000/svg">
<g clip-path="url(#clip0_1_599)">
<path d="M40.3906 15.4688H28.304C28.3423 15.0448 28.3631 14.6154 28.3631 14.1814C28.3631 6.36172 22.001 0 14.1814 0C11.6905 0 9.2403 0.655273 7.09555 1.89465C6.68466 2.13199 6.54401 2.65768 6.78134 3.06857C7.01901 3.4798 7.54471 3.62012 7.9556 3.38278C9.83917 2.29413 11.992 1.71875 14.1814 1.71875C21.0533 1.71875 26.6443 7.30939 26.6443 14.1814C26.6443 21.0533 21.0533 26.6443 14.1814 26.6443C11.3048 26.6443 8.60248 25.6913 6.36642 23.8886C6.14218 23.708 5.84509 23.654 5.57452 23.7369L3.29349 24.3334L4.1871 22.3696C4.31567 22.0876 4.2821 21.7586 4.09982 21.5079C2.54221 19.3685 1.71875 16.835 1.71875 14.1814C1.71875 11.9863 2.29715 9.82809 3.39151 7.94049C3.62952 7.5296 3.48953 7.00391 3.07898 6.7659C2.66843 6.52789 2.14273 6.66754 1.90439 7.07843C0.65863 9.22754 0 11.6838 0 14.1814C0 17.0311 0.834869 19.7599 2.41934 22.1047L0.98056 25.266C0.842926 25.5677 0.891602 25.9216 1.1051 26.1754C1.3186 26.4291 1.659 26.5372 1.97992 26.4533L5.63461 25.4979C8.0845 27.3486 11.1021 28.3631 14.1814 28.3631C14.8517 28.3631 15.5107 28.3151 16.1562 28.2248V35.75C16.1562 37.74 17.7753 39.3594 19.7653 39.3594H31.9197L37.3543 43.8056C37.5107 43.9339 37.7037 43.9997 37.8984 43.9997C38.0237 43.9997 38.1492 43.9725 38.2664 43.9171C38.5665 43.7747 38.7578 43.4726 38.7578 43.1403V39.3594H40.3906C42.381 39.3594 44 37.74 44 35.75V19.0781C44 17.0878 42.381 15.4688 40.3906 15.4688V15.4688ZM42.2812 35.75C42.2812 36.7923 41.4333 37.6406 40.3906 37.6406H37.8984C37.4238 37.6406 37.0391 38.0253 37.0391 38.5V41.3269L32.7946 37.8541C32.5606 37.6406 32.3558 37.6406 31.8956 37.6406H19.7653C18.723 37.6406 17.875 36.7923 17.875 35.75V27.874C22.9584 26.5013 26.9189 22.3676 28.0411 17.1875H40.3906C41.4333 17.1875 42.2812 18.0355 42.2812 19.0781V35.75Z" fill="black"/>
<path d="M34.3551 29.9583C34.6465 29.821 34.8486 29.5253 34.8486 29.1815C34.8486 28.7072 34.4639 28.3221 33.9892 28.3221H33.6374L30.8659 22.0057C30.7286 21.6932 30.4198 21.4915 30.0787 21.4915C29.7376 21.4915 29.4288 21.6932 29.2918 22.0057L26.5204 28.3221H26.1685C25.6939 28.3221 25.3092 28.7072 25.3092 29.1815C25.3092 29.5253 25.5113 29.821 25.8026 29.9583L24.7704 32.3109C24.5797 32.7456 24.7774 33.2525 25.2118 33.4431C25.6465 33.6338 26.1534 33.4361 26.3441 33.0014L27.6432 30.0409H32.5145L33.8136 33.0014C33.9549 33.3236 34.2702 33.5157 34.6012 33.5157C34.7163 33.5157 34.8335 33.4925 34.9459 33.4431C35.3803 33.2525 35.5784 32.7456 35.3874 32.3109L34.3551 29.9583ZM28.3972 28.3221L30.0787 24.4899L31.7602 28.3221H28.3972Z" fill="black"/>
<path d="M4.76074 5.62024C4.98666 5.62024 5.20822 5.52826 5.36835 5.36847C5.52814 5.20868 5.62012 4.98712 5.62012 4.76086C5.62012 4.53494 5.52814 4.31338 5.36835 4.15326C5.20822 3.99347 4.98666 3.90149 4.76074 3.90149C4.53381 3.90149 4.31293 3.99347 4.15314 4.15326C3.99335 4.31338 3.90137 4.53494 3.90137 4.76086C3.90137 4.98712 3.99335 5.20868 4.15314 5.36847C4.31293 5.52859 4.53449 5.62024 4.76074 5.62024Z" fill="black"/>
<path d="M9.05142 19.4115C8.63516 19.6398 8.48276 20.1621 8.71103 20.5784C8.86746 20.8634 9.16187 21.0248 9.46533 21.0248C9.60498 21.0248 9.74664 20.9906 9.8779 20.9188C11.7944 19.8677 13.2687 18.2329 14.1311 16.305C14.9939 18.2329 16.4679 19.8677 18.3844 20.9188C18.5156 20.9906 18.6573 21.0248 18.7969 21.0248C19.1004 21.0248 19.3948 20.8634 19.5512 20.5784C19.7795 20.1621 19.6271 19.6398 19.2108 19.4115C16.9674 18.1812 15.4575 15.9824 15.0825 13.4979H18.898C19.3726 13.4979 19.7574 13.1132 19.7574 12.6385C19.7574 12.1639 19.3726 11.7792 18.898 11.7792H14.9905V8.198C14.9905 7.72333 14.6058 7.33862 14.1311 7.33862C13.6565 7.33862 13.2718 7.72333 13.2718 8.198V11.7792H10.1673C9.6926 11.7792 9.30789 12.1639 9.30789 12.6385C9.30789 13.1132 9.6926 13.4979 10.1673 13.4979H13.1798C12.8048 15.9824 11.2949 18.1815 9.05142 19.4115Z" fill="black"/>
</g>
<defs>
<clipPath id="clip0_1_599">
<rect width="44" height="44" fill="white"/>
</clipPath>
</defs>
</svg>
