<svg width="42" height="42" viewBox="0 0 42 42" fill="none" xmlns="http://www.w3.org/2000/svg">
<g clip-path="url(#clip0_1_671)">
<path d="M41.3002 11.2H39.1645C39.0788 10.0807 38.7849 8.98722 38.2979 7.9758L40.1494 6.9062C40.3678 6.78205 40.5029 6.55041 40.5034 6.29922C40.504 6.04803 40.3699 5.8158 40.1521 5.69068C39.9342 5.56557 39.6661 5.56676 39.4494 5.6938L37.6028 6.7606C36.9665 5.83519 36.1657 5.03442 35.2403 4.3981L36.3064 2.5508C36.4334 2.3341 36.4346 2.06595 36.3095 1.84813C36.1844 1.63031 35.9522 1.49623 35.701 1.49678C35.4498 1.49733 35.2181 1.63243 35.094 1.8508L34.0244 3.7023C33.0131 3.21494 31.9196 2.92102 30.8002 2.8357V0.7C30.8002 0.313401 30.4868 0 30.1002 0C29.7136 0 29.4002 0.313401 29.4002 0.7V2.8357C28.2808 2.92102 27.1873 3.21494 26.176 3.7023L25.1064 1.8508C24.9822 1.63243 24.7506 1.49733 24.4994 1.49678C24.2482 1.49623 24.016 1.63031 23.8909 1.84813C23.7658 2.06595 23.767 2.3341 23.894 2.5508L24.9601 4.3981C24.0347 5.03442 23.2339 5.83519 22.5976 6.7606L20.751 5.6938C20.5343 5.56676 20.2661 5.56557 20.0483 5.69068C19.8305 5.8158 19.6964 6.04803 19.697 6.29922C19.6975 6.55041 19.8326 6.78205 20.051 6.9062L21.9025 7.9758C21.4155 8.98722 21.1216 10.0807 21.0359 11.2H18.9002C18.5136 11.2 18.2002 11.5134 18.2002 11.9C18.2002 12.2866 18.5136 12.6 18.9002 12.6H21.0359C21.1216 13.7193 21.4155 14.8128 21.9025 15.8242L20.051 16.8938C19.8326 17.018 19.6975 17.2496 19.697 17.5008C19.6964 17.752 19.8305 17.9842 20.0483 18.1093C20.2661 18.2344 20.5343 18.2332 20.751 18.1062L22.5976 17.0394C23.2339 17.9648 24.0347 18.7656 24.9601 19.4019L23.894 21.2492C23.767 21.4659 23.7658 21.7341 23.8909 21.9519C24.016 22.1697 24.2482 22.3038 24.4994 22.3032C24.7506 22.3027 24.9822 22.1676 25.1064 21.9492L26.176 20.0977C27.1873 20.5851 28.2808 20.879 29.4002 20.9643V23.1C29.4002 23.4866 29.7136 23.8 30.1002 23.8C30.4868 23.8 30.8002 23.4866 30.8002 23.1V20.9643C31.9196 20.879 33.0131 20.5851 34.0244 20.0977L35.094 21.9492C35.2181 22.1676 35.4498 22.3027 35.701 22.3032C35.9522 22.3038 36.1844 22.1697 36.3095 21.9519C36.4346 21.7341 36.4334 21.4659 36.3064 21.2492L35.2403 19.4019C36.1657 18.7656 36.9665 17.9648 37.6028 17.0394L39.4494 18.1062C39.6661 18.2332 39.9342 18.2344 40.1521 18.1093C40.3699 17.9842 40.504 17.752 40.5034 17.5008C40.5029 17.2496 40.3678 17.018 40.1494 16.8938L38.2979 15.8242C38.7849 14.8128 39.0788 13.7193 39.1645 12.6H41.3002C41.6868 12.6 42.0002 12.2866 42.0002 11.9C42.0002 11.5134 41.6868 11.2 41.3002 11.2ZM30.1002 19.6C25.8476 19.6 22.4002 16.1526 22.4002 11.9C22.4002 7.64741 25.8476 4.2 30.1002 4.2C34.3528 4.2 37.8002 7.64741 37.8002 11.9C37.7952 16.1505 34.3507 19.595 30.1002 19.6Z" fill="black"/>
<path d="M27.2997 7.69995C26.1399 7.69995 25.1997 8.64015 25.1997 9.79995C25.1997 10.9597 26.1399 11.9 27.2997 11.9C28.4595 11.9 29.3997 10.9597 29.3997 9.79995C29.3997 8.64015 28.4595 7.69995 27.2997 7.69995ZM27.2997 10.5C26.9131 10.5 26.5997 10.1865 26.5997 9.79995C26.5997 9.41335 26.9131 9.09995 27.2997 9.09995C27.6863 9.09995 27.9997 9.41335 27.9997 9.79995C27.9997 10.1865 27.6863 10.5 27.2997 10.5Z" fill="black"/>
<path d="M32.9001 11.2C31.3537 11.2 30.1001 12.4536 30.1001 14C30.1001 15.5464 31.3537 16.8 32.9001 16.8C34.4465 16.8 35.7001 15.5464 35.7001 14C35.7001 12.4536 34.4465 11.2 32.9001 11.2ZM32.9001 15.4C32.1269 15.4 31.5001 14.7732 31.5001 14C31.5001 13.2268 32.1269 12.6 32.9001 12.6C33.6733 12.6 34.3001 13.2268 34.3001 14C34.3001 14.7732 33.6733 15.4 32.9001 15.4Z" fill="black"/>
<path d="M31.5003 8.4C31.8869 8.4 32.2003 8.0866 32.2003 7.7C32.2003 7.3134 31.8869 7 31.5003 7C31.1137 7 30.8003 7.3134 30.8003 7.7C30.8003 8.0866 31.1137 8.4 31.5003 8.4Z" fill="black"/>
<path d="M27.3001 15.4C27.6867 15.4 28.0001 15.0866 28.0001 14.7C28.0001 14.3134 27.6867 14 27.3001 14C26.9135 14 26.6001 14.3134 26.6001 14.7C26.6001 15.0866 26.9135 15.4 27.3001 15.4Z" fill="black"/>
<path d="M0.7 26.6H2.8357C2.92136 27.7193 3.21526 28.8128 3.7023 29.8242L1.8508 30.8938C1.63243 31.018 1.49733 31.2496 1.49678 31.5008C1.49623 31.752 1.63031 31.9842 1.84813 32.1093C2.06595 32.2344 2.3341 32.2332 2.5508 32.1062L4.3974 31.0394C5.03372 31.9648 5.83449 32.7656 6.7599 33.4019L5.6938 35.2492C5.56676 35.4659 5.56557 35.7341 5.69068 35.9519C5.8158 36.1697 6.04803 36.3038 6.29922 36.3032C6.55041 36.3027 6.78205 36.1676 6.9062 35.9492L7.9758 34.0977C8.9871 34.5851 10.0806 34.879 11.2 34.9643V37.1C11.2 37.4866 11.5134 37.8 11.9 37.8C12.2866 37.8 12.6 37.4866 12.6 37.1V34.9643C13.7194 34.879 14.8129 34.5851 15.8242 34.0977L16.8938 35.9492C17.018 36.1676 17.2496 36.3027 17.5008 36.3032C17.752 36.3038 17.9842 36.1697 18.1093 35.9519C18.2344 35.7341 18.2332 35.4659 18.1062 35.2492L17.0401 33.4019C17.9655 32.7656 18.7663 31.9648 19.4026 31.0394L21.2492 32.1062C21.4659 32.2332 21.7341 32.2344 21.9519 32.1093C22.1697 31.9842 22.3038 31.752 22.3032 31.5008C22.3027 31.2496 22.1676 31.018 21.9492 30.8938L20.0977 29.8242C20.5847 28.8128 20.8786 27.7193 20.9643 26.6H23.1C23.4866 26.6 23.8 26.2866 23.8 25.9C23.8 25.5134 23.4866 25.2 23.1 25.2H20.9643C20.8786 24.0807 20.5847 22.9872 20.0977 21.9758L21.9492 20.9062C22.1676 20.782 22.3027 20.5504 22.3032 20.2992C22.3038 20.048 22.1697 19.8158 21.9519 19.6907C21.7341 19.5656 21.4659 19.5668 21.2492 19.6938L19.4026 20.7606C18.7663 19.8352 17.9655 19.0344 17.0401 18.3981L18.1062 16.5508C18.2332 16.3341 18.2344 16.0659 18.1093 15.8481C17.9842 15.6303 17.752 15.4962 17.5008 15.4968C17.2496 15.4973 17.018 15.6324 16.8938 15.8508L15.8242 17.7023C14.8129 17.2149 13.7194 16.921 12.6 16.8357V14.7C12.6 14.3134 12.2866 14 11.9 14C11.5134 14 11.2 14.3134 11.2 14.7V16.8357C10.0806 16.921 8.9871 17.2149 7.9758 17.7023L6.9062 15.8508C6.78205 15.6324 6.55041 15.4973 6.29922 15.4968C6.04803 15.4962 5.8158 15.6303 5.69068 15.8481C5.56557 16.0659 5.56676 16.3341 5.6938 16.5508L6.7599 18.3981C5.83449 19.0344 5.03372 19.8352 4.3974 20.7606L2.5508 19.6938C2.3341 19.5668 2.06595 19.5656 1.84813 19.6907C1.63031 19.8158 1.49623 20.048 1.49678 20.2992C1.49733 20.5504 1.63243 20.782 1.8508 20.9062L3.7023 21.9758C3.21526 22.9872 2.92136 24.0807 2.8357 25.2H0.7C0.313401 25.2 0 25.5134 0 25.9C0 26.2866 0.313401 26.6 0.7 26.6ZM11.9 18.2C16.1526 18.2 19.6 21.6474 19.6 25.9C19.6 30.1526 16.1526 33.6 11.9 33.6C7.64741 33.6 4.2 30.1526 4.2 25.9C4.20502 21.6495 7.64949 18.205 11.9 18.2Z" fill="black"/>
<path d="M9.1 25.9C10.2598 25.9 11.2 24.9598 11.2 23.8C11.2 22.6402 10.2598 21.7 9.1 21.7C7.9402 21.7 7 22.6402 7 23.8C7 24.9598 7.9402 25.9 9.1 25.9ZM9.1 23.1C9.4866 23.1 9.8 23.4134 9.8 23.8C9.8 24.1866 9.4866 24.5 9.1 24.5C8.7134 24.5 8.4 24.1866 8.4 23.8C8.4 23.4134 8.7134 23.1 9.1 23.1Z" fill="black"/>
<path d="M14.6999 30.8C16.2463 30.8 17.4999 29.5464 17.4999 28C17.4999 26.4536 16.2463 25.2 14.6999 25.2C13.1535 25.2 11.8999 26.4536 11.8999 28C11.8999 29.5464 13.1535 30.8 14.6999 30.8ZM14.6999 26.6C15.4731 26.6 16.0999 27.2268 16.0999 28C16.0999 28.7732 15.4731 29.4 14.6999 29.4C13.9267 29.4 13.2999 28.7732 13.2999 28C13.2999 27.2268 13.9267 26.6 14.6999 26.6Z" fill="black"/>
<path d="M13.3001 22.4C13.6867 22.4 14.0001 22.0866 14.0001 21.7C14.0001 21.3134 13.6867 21 13.3001 21C12.9135 21 12.6001 21.3134 12.6001 21.7C12.6001 22.0866 12.9135 22.4 13.3001 22.4Z" fill="black"/>
<path d="M9.0999 29.4C9.4865 29.4 9.7999 29.0866 9.7999 28.7C9.7999 28.3134 9.4865 28 9.0999 28C8.7133 28 8.3999 28.3134 8.3999 28.7C8.3999 29.0866 8.7133 29.4 9.0999 29.4Z" fill="black"/>
<path d="M41.2998 33.6C41.6864 33.6 41.9998 33.2866 41.9998 32.9C41.9998 32.5134 41.6864 32.2 41.2998 32.2H39.8641C39.7875 31.4495 39.5889 30.7166 39.2761 30.03L40.5249 29.309C40.8569 29.1144 40.9695 28.6884 40.7771 28.3552C40.5847 28.0219 40.1594 27.9065 39.8249 28.0966L38.5733 28.819C38.1318 28.2078 37.5951 27.6713 36.9836 27.23L37.706 25.9784C37.8962 25.6439 37.7807 25.2187 37.4475 25.0263C37.1143 24.8339 36.6882 24.9465 36.4936 25.2784L35.7698 26.5237C35.0833 26.2109 34.3503 26.0123 33.5998 25.9357V24.5C33.5998 24.1134 33.2864 23.8 32.8998 23.8C32.5132 23.8 32.1998 24.1134 32.1998 24.5V25.9357C31.4493 26.0123 30.7163 26.2109 30.0298 26.5237L29.3088 25.2749C29.1847 25.0566 28.953 24.9215 28.7018 24.9209C28.4506 24.9204 28.2184 25.0545 28.0933 25.2723C27.9682 25.4901 27.9694 25.7582 28.0964 25.9749L28.816 27.23C28.206 27.6707 27.6705 28.2062 27.2298 28.8162L25.9782 28.0938C25.6437 27.9037 25.2184 28.0191 25.026 28.3524C24.8336 28.6856 24.9463 29.1116 25.2782 29.3062L26.527 30.0272C26.2142 30.7138 26.0156 31.4467 25.939 32.1972H24.4998C24.1132 32.1972 23.7998 32.5106 23.7998 32.8972C23.7998 33.2838 24.1132 33.5972 24.4998 33.5972H25.9355C26.0121 34.3478 26.2107 35.0807 26.5235 35.7672L25.2747 36.4882C25.0563 36.6124 24.9212 36.844 24.9207 37.0952C24.9201 37.3464 25.0542 37.5787 25.272 37.7038C25.4899 37.8289 25.758 37.8277 25.9747 37.7006L27.2298 36.9838C27.6712 37.5954 28.208 38.1321 28.8195 38.5735L28.0971 39.8251C27.9701 40.0418 27.9689 40.31 28.094 40.5278C28.2191 40.7456 28.4513 40.8797 28.7025 40.8792C28.9537 40.8786 29.1854 40.7435 29.3095 40.5251L30.0305 39.2763C30.717 39.5892 31.45 39.7878 32.2005 39.8643V41.3C32.2005 41.6866 32.5139 42 32.9005 42C33.2871 42 33.6005 41.6866 33.6005 41.3V39.8643C34.351 39.7878 35.084 39.5892 35.7705 39.2763L36.4915 40.5251C36.6861 40.8571 37.1122 40.9697 37.4454 40.7773C37.7786 40.5849 37.8941 40.1596 37.7039 39.8251L36.9815 38.5735C37.593 38.1321 38.1298 37.5954 38.5712 36.9838L39.8228 37.7062C39.9291 37.7679 40.0499 37.8003 40.1728 37.8C40.4896 37.8 40.7669 37.5872 40.8489 37.2812C40.9309 36.9752 40.7972 36.6523 40.5228 36.4938L39.2761 35.77C39.5889 35.0835 39.7875 34.3506 39.8641 33.6H41.2998ZM32.8998 38.5C29.807 38.5 27.2998 35.9928 27.2998 32.9C27.2998 29.8073 29.807 27.3 32.8998 27.3C35.9926 27.3 38.4998 29.8073 38.4998 32.9C38.4963 35.9914 35.9912 38.4966 32.8998 38.5Z" fill="black"/>
<path d="M33.5999 30.8C33.9865 30.8 34.2999 30.4866 34.2999 30.1C34.2999 29.7134 33.9865 29.4 33.5999 29.4C33.2133 29.4 32.8999 29.7134 32.8999 30.1C32.8999 30.4866 33.2133 30.8 33.5999 30.8Z" fill="black"/>
<path d="M30.0999 31.5C30.4865 31.5 30.7999 31.1866 30.7999 30.8C30.7999 30.4134 30.4865 30.1 30.0999 30.1C29.7133 30.1 29.3999 30.4134 29.3999 30.8C29.3999 31.1866 29.7133 31.5 30.0999 31.5Z" fill="black"/>
<path d="M35.7 35C36.0866 35 36.4 34.6866 36.4 34.3C36.4 33.9134 36.0866 33.6 35.7 33.6C35.3134 33.6 35 33.9134 35 34.3C35 34.6866 35.3134 35 35.7 35Z" fill="black"/>
<path d="M30.8001 35.7C31.1867 35.7 31.5001 35.3866 31.5001 35C31.5001 34.6134 31.1867 34.3 30.8001 34.3C30.4135 34.3 30.1001 34.6134 30.1001 35C30.1001 35.3866 30.4135 35.7 30.8001 35.7Z" fill="black"/>
</g>
<defs>
<clipPath id="clip0_1_671">
<rect width="42" height="42" fill="white"/>
</clipPath>
</defs>
</svg>
