<svg width="69" height="49" viewBox="0 0 69 49" fill="none" xmlns="http://www.w3.org/2000/svg">
<path d="M68.27 15.0372C67.9342 14.6275 67.4332 14.3884 66.9075 14.3884H60.2249C58.5757 10.0387 56.4273 5.77691 53.9853 4.16818C45.5375 -1.38939 23.1302 -1.38939 14.6824 4.16818C12.2386 5.77866 10.099 10.0457 8.44106 14.3884H1.75843C1.22747 14.3884 0.728165 14.6275 0.39588 15.0372C0.0618362 15.4451 -0.0717813 15.9848 0.0372224 16.5035L1.02705 21.2998C1.19583 22.1173 1.91666 22.701 2.74825 22.701H4.7279C2.81682 24.9058 1.89029 27.6819 1.87798 30.4598C1.86567 33.8918 3.16844 36.9932 5.5507 39.1874C5.57707 39.2103 5.60345 39.2261 5.62806 39.2489V45.9599C5.62806 47.4139 6.80952 48.5971 8.26525 48.5971H14.4292C15.885 48.5971 17.0664 47.4139 17.0664 45.9599V43.2628H51.5977V45.9599C51.5977 47.4139 52.7792 48.5971 54.2349 48.5971H60.3989C61.8511 48.5971 63.0361 47.4139 63.0361 45.9599V39.3808C65.5643 37.0653 66.7721 33.8795 66.7879 30.699C66.7985 27.8261 65.8298 24.948 63.8062 22.6975H65.9177C66.7528 22.6975 67.4736 22.1138 67.6389 21.2945L68.6305 16.5C68.7324 15.9848 68.6041 15.4486 68.27 15.0372ZM17.578 8.5724C24.3116 4.14005 44.3525 4.14005 51.0826 8.5724C52.3907 9.43038 54.0732 12.8993 55.6151 17.147H13.0491C14.5875 12.901 16.27 9.4339 17.578 8.5724ZM9.69108 31.1209C9.69108 28.2551 12.0153 25.9343 14.8793 25.9343C17.7468 25.9343 20.0675 28.2551 20.0675 31.1209C20.0675 33.9867 17.7468 36.3093 14.8793 36.3093C12.0153 36.3093 9.69108 33.9867 9.69108 31.1209ZM53.8534 36.3093C50.9894 36.3093 48.6652 33.9867 48.6652 31.1209C48.6652 28.2551 50.9894 25.9343 53.8534 25.9343C56.7209 25.9343 59.0416 28.2551 59.0416 31.1209C59.0416 33.9867 56.7174 36.3093 53.8534 36.3093Z" fill="#E0E0E0"/>
</svg>
