<svg width="77" height="73" viewBox="0 0 77 73" fill="none" xmlns="http://www.w3.org/2000/svg">
<path d="M34.6754 41.027C36.231 40.0551 37.6398 38.8699 38.8606 37.511L43.2617 40.0526L47.269 33.1114L42.8768 30.5753C43.4352 28.8704 43.7637 27.0619 43.8253 25.1873L48.8222 24.3062L47.4299 16.4132L42.4339 17.2942C41.7435 15.583 40.8172 13.9919 39.6938 12.5619L42.9597 8.67033L36.8199 3.51885L33.5569 7.40709C31.9631 6.55305 30.2372 5.91463 28.4183 5.53154V0.460571H20.4035V5.53154C18.5844 5.91463 16.8585 6.55305 15.2646 7.40709L12.0017 3.51885L5.86196 8.67052L9.12741 12.5621C8.00425 13.992 7.07796 15.5834 6.38752 17.2944L1.39155 16.4134L0 24.3064L4.99615 25.1875C5.05773 27.0623 5.38641 28.8704 5.94487 30.5759L1.55221 33.1117L5.55976 40.0528L9.96105 37.5119C11.1815 38.8702 12.5903 40.0557 14.146 41.0276L12.4087 45.8002L19.9403 48.541L21.6752 43.7748C22.5694 43.9013 23.4824 43.9684 24.4109 43.9684C25.3394 43.9684 26.2526 43.9017 27.1468 43.7748L28.8815 48.5414L36.4128 45.7998L34.6754 41.027ZM24.4105 34.7768C18.7668 34.7768 14.1752 30.1855 14.1752 24.5415C14.1752 18.8979 18.7668 14.3062 24.4105 14.3062C30.0543 14.3062 34.6459 18.8979 34.6459 24.5415C34.6459 30.1855 30.0545 34.7768 24.4105 34.7768Z" fill="#E0E0E0"/>
<path d="M69.1256 47.0456L65.6706 48.1632C65.0118 47.0182 64.1975 45.9814 63.2598 45.0789L65.1907 41.9972L60.3291 38.9513L58.3993 42.0303C57.1853 41.5822 55.8989 41.3 54.571 41.2084L54.07 37.613L48.3877 38.4051L48.8886 42.0005C47.6369 42.4515 46.4759 43.0754 45.4305 43.8381L42.7334 41.4035L38.8893 45.6623L41.5886 48.0996C40.9338 49.2243 40.4347 50.4438 40.1143 51.7258L36.4849 51.5945L36.2773 57.3276L39.9066 57.4592C40.1356 58.7824 40.5474 60.0311 41.1121 61.1855L38.2485 63.4177L41.7752 67.9425L44.6445 65.7065C45.6441 66.5488 46.7605 67.2499 47.959 67.7857L47.1983 71.3416L52.809 72.5401L53.5687 68.9898C54.2151 68.9916 54.8687 68.9477 55.5268 68.8561C56.1853 68.7646 56.8265 68.6263 57.4472 68.449L59.1487 71.6569L64.2175 68.9688L62.5142 65.7572C63.5215 64.9142 64.4022 63.9341 65.134 62.8506L68.505 64.2175L70.6607 58.9006L67.2962 57.5362C67.523 56.2725 67.5772 54.9577 67.4366 53.6221L70.8923 52.5037L69.1256 47.0456ZM54.6197 62.3396C50.6176 62.8967 46.9084 60.0953 46.3513 56.0938C45.793 52.0921 48.5952 48.3825 52.5971 47.8256C56.5985 47.2675 60.3068 50.0695 60.8655 54.0715C61.4223 58.0728 58.621 61.7813 54.6197 62.3396Z" fill="#E0E0E0"/>
<path d="M76.8654 27.1632L77 22.6358L74.1349 22.5507C73.9553 21.5529 73.6343 20.5648 73.1634 19.6148L75.4134 17.8372L72.6062 14.2839L70.3566 16.0608C69.5542 15.394 68.6667 14.8505 67.7246 14.4402L68.3062 11.6293L63.8718 10.7109L63.2891 13.52C62.2672 13.5214 61.2383 13.6665 60.2301 13.9633L58.8714 11.44L54.8834 13.5878L56.242 16.1115C55.44 16.7891 54.7517 17.57 54.1876 18.4214L51.5229 17.3608L49.8481 21.569L52.515 22.6314C52.3394 23.6439 52.3052 24.6825 52.4205 25.7194L49.6982 26.6198L51.1196 30.9204L53.8418 30.0204C54.3749 30.9369 55.0231 31.7476 55.7584 32.447L54.2527 34.886L58.1062 37.2658L59.6152 34.8224C60.5867 35.1709 61.6056 35.3832 62.6396 35.45L63.0536 38.2906L67.5358 37.636L67.1229 34.7989C67.6012 34.6229 68.0733 34.4112 68.5354 34.1623C68.9979 33.9137 69.4345 33.6353 69.8448 33.3332L71.986 35.2397L74.9983 31.8577L72.8557 29.949C73.3694 29.0483 73.7518 28.0806 73.9959 27.0779L76.8654 27.1632ZM66.0731 29.5891C63.2641 31.1014 59.7488 30.0472 58.2372 27.2393C56.7244 24.431 57.7788 20.915 60.5878 19.4034C63.3953 17.8907 66.9104 18.9457 68.4233 21.754C69.9347 24.5624 68.881 28.0766 66.0731 29.5891Z" fill="#E0E0E0"/>
</svg>
