<svg width="24" height="22" viewBox="0 0 24 22" fill="none" xmlns="http://www.w3.org/2000/svg">
<path d="M23.7457 7.39732L16.8885 0.540235C16.7188 0.370564 16.518 0.285706 16.2859 0.285706C16.0537 0.285706 15.8527 0.370564 15.6832 0.540235C15.5135 0.709999 15.4286 0.910911 15.4286 1.14302V4.57156H12.4286C6.06227 4.57156 2.15623 6.37072 0.709596 9.96893C0.236516 11.1652 0 12.652 0 14.4288C0 15.9108 0.566992 17.9242 1.70088 20.4689C1.72762 20.5315 1.77434 20.6384 1.84142 20.7902C1.90846 20.9418 1.96864 21.0758 2.02221 21.1919C2.07597 21.3079 2.13404 21.4061 2.19648 21.4864C2.30352 21.6382 2.42858 21.7143 2.57147 21.7143C2.7054 21.7143 2.81033 21.6697 2.88628 21.5804C2.96204 21.4912 2.99999 21.3794 2.99999 21.2458C2.99999 21.1653 2.98882 21.0471 2.96645 20.8908C2.94412 20.7344 2.93291 20.6298 2.93291 20.5761C2.8882 19.9692 2.86587 19.4197 2.86587 18.929C2.86587 18.0272 2.94412 17.2192 3.10023 16.5049C3.25658 15.7905 3.47307 15.1724 3.74992 14.65C4.02674 14.1274 4.38376 13.6769 4.82138 13.2974C5.25881 12.9179 5.72973 12.6077 6.23419 12.3666C6.73875 12.1254 7.33248 11.9357 8.01552 11.7974C8.69852 11.659 9.38597 11.563 10.078 11.5093C10.7701 11.4557 11.5536 11.4291 12.4286 11.4291H15.4286V14.8577C15.4286 15.0898 15.5134 15.2908 15.6829 15.4604C15.8527 15.6298 16.0535 15.7148 16.2855 15.7148C16.5176 15.7148 16.7186 15.6298 16.8885 15.4604L23.7456 8.60303C23.9153 8.43336 24 8.23254 24 8.00039C24 7.76828 23.9153 7.56732 23.7457 7.39732Z" fill="white"/>
</svg>
