<svg width="60" height="60" viewBox="0 0 60 60" fill="none" xmlns="http://www.w3.org/2000/svg">
<g clip-path="url(#clip0_1_329)">
<path d="M6.875 0C3.0775 0 0 3.0775 0 6.875V28.75H28.75V0H6.875ZM18.125 16.875H15.625V19.375C15.625 20.41 14.785 21.25 13.75 21.25C12.715 21.25 11.875 20.41 11.875 19.375V16.875H9.375C8.34 16.875 7.5 16.035 7.5 15C7.5 13.965 8.34 13.125 9.375 13.125H11.875V10.625C11.875 9.59 12.715 8.75 13.75 8.75C14.785 8.75 15.625 9.59 15.625 10.625V13.125H18.125C19.16 13.125 20 13.965 20 15C20 16.035 19.16 16.875 18.125 16.875Z" fill="#E0E0E0"/>
<path d="M0 31.25V53.125C0 56.9225 3.0775 60 6.875 60H28.75V31.25H0ZM18.825 47.425C19.5575 48.1575 19.5575 49.345 18.825 50.0775C18.46 50.4425 17.98 50.625 17.5 50.625C17.02 50.625 16.54 50.4425 16.175 50.075L14.375 48.275L12.575 50.075C12.21 50.44 11.73 50.625 11.25 50.625C10.77 50.625 10.29 50.4425 9.925 50.075C9.1925 49.3425 9.1925 48.155 9.925 47.4225L11.725 45.6225L9.925 43.8225C9.1925 43.09 9.1925 41.9025 9.925 41.17C10.6575 40.4375 11.845 40.4375 12.5775 41.17L14.3775 42.97L16.1775 41.17C16.91 40.4375 18.0975 40.4375 18.83 41.17C19.5625 41.9025 19.5625 43.09 18.83 43.8225L17.03 45.6225L18.825 47.425Z" fill="#E0E0E0"/>
<path d="M53.125 0H31.25V28.75H60V6.875C60 3.0775 56.9225 0 53.125 0ZM51.875 16.25H40.625C39.59 16.25 38.75 15.41 38.75 14.375C38.75 13.34 39.59 12.5 40.625 12.5H51.875C52.91 12.5 53.75 13.34 53.75 14.375C53.75 15.41 52.91 16.25 51.875 16.25Z" fill="#E0E0E0"/>
<path d="M31.25 31.25V60H53.125C56.9225 60 60 56.9225 60 53.125V31.25H31.25ZM51.25 51.25H40C38.965 51.25 38.125 50.41 38.125 49.375C38.125 48.34 38.965 47.5 40 47.5H51.25C52.285 47.5 53.125 48.34 53.125 49.375C53.125 50.41 52.285 51.25 51.25 51.25ZM51.25 43.75H40C38.965 43.75 38.125 42.91 38.125 41.875C38.125 40.84 38.965 40 40 40H51.25C52.285 40 53.125 40.84 53.125 41.875C53.125 42.91 52.285 43.75 51.25 43.75Z" fill="#E0E0E0"/>
</g>
<defs>
<clipPath id="clip0_1_329">
<rect width="60" height="60" fill="white"/>
</clipPath>
</defs>
</svg>
