<svg width="72" height="72" viewBox="0 0 72 72" fill="none" xmlns="http://www.w3.org/2000/svg">
<g clip-path="url(#clip0_1_436)">
<path d="M35.5289 26.436C36.2062 26.7017 36.8707 26.0515 36.6462 25.3597C35.1052 20.6109 29.5257 18.8395 24.339 23.0525C21.6107 25.2689 20.5854 25.7399 20.5596 25.7518C22.3582 27.5501 24.413 33.5846 28.8974 34.2519C33.8372 35.1476 38.2093 30.2875 34.6323 28.0636C32.2799 26.6011 29.5101 25.7516 26.5412 25.7516C29.6537 25.05 32.7609 25.3508 35.5289 26.436Z" fill="#E0E0E0"/>
<path d="M57.8982 23.0523C48.9449 15.7797 43.235 27.2487 46.7842 26.1118C49.305 25.3043 52.0608 25.1285 54.825 25.7515C50.1415 25.7515 45.8242 27.8979 42.9457 31.3915C43.1822 25.9012 43.5397 22.4646 43.9543 19.9081C46.3467 19.8259 49.5353 17.894 51.2864 14.5134C54.3053 9.11076 52.9053 3.57129 52.4548 0.0758667C50.0959 2.3729 39.7916 -0.318617 35.7067 6.68122C33.9023 9.77332 34.4267 13.536 36.325 16.2895C36.9258 17.1612 38.3626 16.743 38.4035 15.6851C38.5818 11.0833 40.8721 7.60655 45.1417 5.68087C43.2258 8.16326 41.9679 10.9425 41.318 13.815C40.3079 18.2897 39.2527 21.2251 38.8653 35.4874C38.826 36.9337 39.9977 38.131 41.4446 38.1129C42.492 38.0997 43.3892 37.435 43.792 36.4681C44.4046 34.9975 45.4018 33.4754 47.0244 32.0809C48.5663 33.7853 50.9127 34.6921 53.3404 34.2519C57.8057 33.5874 59.8896 27.5397 61.6781 25.7514C61.6519 25.7398 60.6265 25.2689 57.8982 23.0523Z" fill="#E0E0E0"/>
<path d="M71.0594 40.8229C68.2604 38.9239 65.2141 40.2772 63.8151 41.0849L46.2587 53.9345L35.979 53.9368L33.409 51.3669H42.8497C45.6889 51.3669 48.8687 49.5175 48.8687 46.2259C48.8687 42.7313 45.6889 41.0849 42.8497 41.0849H39.3118C36.6838 41.0849 33.6125 41.3193 31.4471 40.1601C29.3897 39.1131 27.0205 38.5174 24.4916 38.5174C20.2449 38.5174 16.4442 40.2103 13.8397 42.8802L0 56.5045L15.4196 71.924L20.5594 64.2142H44.8478C47.4381 64.2142 49.9385 63.264 51.8749 61.5438L71.2351 44.3453C72.3114 43.3893 72.2507 41.6313 71.0594 40.8229Z" fill="#E0E0E0"/>
</g>
<defs>
<clipPath id="clip0_1_436">
<rect width="72" height="72" fill="white"/>
</clipPath>
</defs>
</svg>
