<svg width="40" height="60" viewBox="0 0 40 60" fill="none" xmlns="http://www.w3.org/2000/svg">
<path d="M20 28.125C24.8541 28.125 28.7891 24.19 28.7891 19.3359C28.7891 14.4819 24.8541 10.5469 20 10.5469C15.1459 10.5469 11.2109 14.4819 11.2109 19.3359C11.2109 24.19 15.1459 28.125 20 28.125Z" fill="#E0E0E0"/>
<path d="M20 0C10.4952 0 0.664062 7.23211 0.664062 19.3359C0.664062 30.3927 17.9161 51.4547 18.6491 52.337C18.9837 52.737 19.4782 52.9688 20 52.9688C20.5218 52.9688 21.0163 52.737 21.3509 52.337C22.0839 51.4547 39.3359 30.3927 39.3359 19.3359C39.3359 8.6741 30.6618 0 20 0ZM20 31.6406C13.2159 31.6406 7.69531 26.12 7.69531 19.3359C7.69531 12.5518 13.2159 7.03125 20 7.03125C26.7841 7.03125 32.3047 12.5518 32.3047 19.3359C32.3047 26.12 26.7841 31.6406 20 31.6406Z" fill="#E0E0E0"/>
<path d="M31.8461 44.2748C28.4568 49.1818 25.2882 53.0997 24.0547 54.5841C23.0418 55.7943 21.5655 56.4844 20 56.4844C18.4345 56.4844 16.9582 55.7943 15.9522 54.5927C14.7158 53.1046 11.545 49.1839 8.1541 44.2748C3.60371 45.8828 0.664062 48.3881 0.664062 51.211C0.664062 56.0649 9.32117 60.0001 20 60.0001C30.6788 60.0001 39.3359 56.0649 39.3359 51.211C39.3359 48.3882 36.3964 45.8828 31.8461 44.2748Z" fill="#E0E0E0"/>
</svg>
