<svg width="58" height="58" viewBox="0 0 58 58" fill="none" xmlns="http://www.w3.org/2000/svg">
<path d="M49.4221 47.8549C48.2971 45.8901 46.6997 44.2359 44.7663 43.0409C42.6141 41.7108 40.1393 41.0078 37.6094 41.0078C35.0795 41.0078 32.6046 41.7108 30.4525 43.0409C28.519 44.2359 26.9216 45.8901 25.7966 47.8549C20.9798 48.3185 17.2188 51.9294 17.2188 56.3008C17.2188 57.2392 17.9795 58 18.918 58H56.3008C57.2392 58 58 57.2392 58 56.3008C58 51.9294 54.239 48.3185 49.4221 47.8549Z" fill="#E0E0E0"/>
<path d="M19.6513 3.62508L36.41 14.2897L36.1913 17.0025L40.9974 21.8085L43.7101 21.5899L54.3748 38.3486C54.7393 38.9218 55.4102 39.2224 56.0805 39.1136C56.7509 39.0049 57.292 38.5073 57.4568 37.8485C58.5976 33.2855 57.928 28.5309 55.5715 24.4603L50.3404 15.4247L50.6366 12.1669L45.8276 7.3637L42.5753 7.65936L33.5396 2.42826C29.469 0.0718984 24.7144 -0.597707 20.1514 0.543035C19.4924 0.707859 18.995 1.249 18.8863 1.9194C18.7775 2.58969 19.078 3.26054 19.6513 3.62508Z" fill="#E0E0E0"/>
<path d="M33.7884 19.4055L0.995402 52.1985C-0.331801 53.5257 -0.331801 55.6775 0.995402 57.0046C2.32261 58.3318 4.47438 58.3318 5.80147 57.0046L38.5945 24.2117L33.7884 19.4055Z" fill="#E0E0E0"/>
<path d="M55.1275 7.67606C56.4547 6.34886 56.4547 4.19708 55.1275 2.86999C53.8003 1.5429 51.6485 1.54279 50.3214 2.86999L48.2305 4.96083L53.0396 9.76395L55.1275 7.67606Z" fill="#E0E0E0"/>
</svg>
