<svg width="64" height="64" viewBox="0 0 64 64" fill="none" xmlns="http://www.w3.org/2000/svg">
<path d="M46.4697 36.5715L42.984 24.8069L34.2686 36.5715H46.4697Z" fill="#E0E0E0"/>
<path d="M7.33857 17.4023C7.38086 17.4548 7.41971 17.512 7.45286 17.5714C8.16371 18.6114 8.73172 19.7417 9.142 20.9325C10.11 17.8045 12.3009 15.2011 15.2186 13.7143C13.6323 12.9257 12.2517 11.7794 11.1854 10.3645C11.1363 10.3108 11.0929 10.2525 11.0551 10.1908C10.2369 9.06168 9.59229 7.81597 9.142 6.49597C8.174 9.62397 5.98314 12.2274 3.06543 13.7143C4.77514 14.568 6.24372 15.8365 7.33857 17.4023Z" fill="#E0E0E0"/>
<path d="M63.77 45.976L63.2454 39.9303L60.4043 43.0457L63.77 45.976Z" fill="#E0E0E0"/>
<path d="M30.8867 37.9783L31.2364 39.4286C28.2192 38.5063 25.2009 37.5829 22.1838 36.6606C22.1198 36.6411 21.8889 36.5383 21.5941 36.5737C21.5552 36.5783 21.3335 36.6069 21.1164 36.7463C20.6467 37.048 20.5792 37.6263 20.5701 37.7143C20.5872 42.6583 20.6055 47.6034 20.6227 52.5474C20.6284 52.6594 20.6535 52.856 20.7644 53.0697C20.8627 53.2571 20.9861 53.3817 21.0684 53.4514C24.5758 56.176 28.0821 58.9017 31.5895 61.6263C28.3129 63.312 24.6569 64.1257 20.9747 63.9897C15.1747 63.7829 9.71408 61.2069 5.86608 56.8629C1.75865 52.3006 -0.330489 46.272 0.0763683 40.1463C0.48894 34.1109 2.66494 27.4914 6.5038 20.4571C7.57923 23.0229 8.08894 25.7909 7.99865 28.5714C7.99865 29.2023 8.51065 29.7143 9.14151 29.7143C9.77237 29.7143 10.2844 29.2023 10.2844 28.5714C10.2844 15.1051 19.0592 14.8571 19.4272 14.8571C20.0581 14.8571 20.5701 14.3451 20.5701 13.7143C20.5701 13.0834 20.0581 12.5714 19.4272 12.5714C17.1347 12.4411 14.9918 11.3863 13.4924 9.64686C16.0215 6.25714 18.7667 3.03429 21.7129 0C22.9278 1.22971 33.5987 12.2171 39.5027 25.6606L31.0798 37.0309C31.0204 37.1063 30.9198 37.2549 30.8729 37.4686C30.8238 37.6971 30.8615 37.8857 30.8867 37.9783Z" fill="#E0E0E0"/>
<path d="M47.623 55.9863L48.8059 52.512L48.8139 52.488L53.3019 39.3029L49.0425 38.9486L47.623 55.9863Z" fill="#E0E0E0"/>
<path d="M60.7422 39.2869L55.2439 40.6926L52.7354 48.0617L60.7422 39.2869Z" fill="#E0E0E0"/>
<path d="M52.4931 36.9428L46.46 28.4971L48.8748 36.6434L52.4931 36.9428Z" fill="#E0E0E0"/>
<path d="M28.5451 47.3612L23.4902 52.4378L34.3485 60.8812L36.7748 62.4229L34.7462 54.0001L28.5451 47.3612Z" fill="#E0E0E0"/>
<path d="M39.506 63.9999H44.6626L44.9643 60.3782C44.9643 60.3633 44.9643 60.3496 44.9643 60.3359L46.7586 38.8571H33.4512L39.506 63.9999Z" fill="#E0E0E0"/>
<path d="M50.8947 53.4697L47.3096 64H50.425L63.545 48.8114L58.8639 44.7349L50.8947 53.4697Z" fill="#E0E0E0"/>
<path d="M31.9072 42.2115L31.8592 42.0126L25.1426 39.9578L28.7906 44.2149L31.9072 42.2115Z" fill="#E0E0E0"/>
<path d="M22.9034 49.7863L27.0166 45.656L22.8691 40.8171L22.9034 49.7863Z" fill="#E0E0E0"/>
<path d="M32.4724 44.5646L30.3398 45.936L33.6598 49.4926L32.4724 44.5646Z" fill="#E0E0E0"/>
</svg>
