<?xml version="1.0" standalone="no"?>
<!DOCTYPE svg PUBLIC "-//W3C//DTD SVG 1.0//EN" "http://www.w3.org/TR/2001/REC-SVG-20010904/DTD/svg10.dtd">
<svg xmlns="http://www.w3.org/2000/svg" xmlns:xlink="http://www.w3.org/1999/xlink" id="body_1" width="1222" height="258">

<g transform="matrix(0.96984124 0 0 0.96984124 -0 0.011113751)">
    <path d="M20 16L1240 16L1240 242L20 242z" stroke="none" fill="#FFFFFF" fill-rule="nonzero" />
	<g>
        <path d="M126 15.5C 126 47.67059 114.62598 75.1299 91.87794 97.87794C 69.1299 120.62598 41.67059 132 9.5 132C -22.67059 132 -50.1299 120.62598 -72.87794 97.87794C -95.625984 75.1299 -107 47.67059 -107 15.5C -107 -16.67059 -95.625984 -44.1299 -72.87794 -66.87794C -50.1299 -89.625984 -22.67059 -101 9.5 -101C 41.67059 -101 69.1299 -89.625984 91.87794 -66.87794C 114.62598 -44.1299 126 -16.67059 126 15.5C 126 16.855679 125.97635 18.210941 125.92903 19.565792" stroke="none" fill="#005F91" fill-rule="nonzero" />
        <path d="M135.5 22.5C 135.5 58.122368 122.905594 88.52796 97.716774 113.716774C 72.52796 138.9056 42.12237 151.5 6.5 151.5C -29.12237 151.5 -59.52796 138.9056 -84.716774 113.716774C -109.905594 88.52796 -122.50001 58.122368 -122.5 22.5C -122.50001 -13.122368 -109.905594 -43.52796 -84.716774 -68.716774C -59.52796 -93.905594 -29.12237 -106.5 6.5 -106.5C 42.12237 -106.5 72.52796 -93.905594 97.716774 -68.716774C 122.905594 -43.52796 135.5 -13.122368 135.5 22.5C 135.5 24.001137 135.47382 25.501816 135.42142 27.002035" stroke="#005F91" stroke-width="1" fill="none" />
        <path d="M1285.5 16C 1285.5 36.02032 1278.4218 53.108738 1264.2653 67.26524C 1250.1088 81.42175 1233.0204 88.5 1213 88.5C 1192.9797 88.5 1175.8914 81.42175 1161.7347 67.26524C 1147.5784 53.108738 1140.5 36.02032 1140.5 16C 1140.5 -4.0203223 1147.5784 -21.108736 1161.7347 -35.26524C 1175.8914 -49.42175 1192.9797 -56.5 1213 -56.5C 1233.0204 -56.5 1250.1088 -49.42175 1264.2653 -35.26524C 1278.4218 -21.108736 1285.5 -4.0203223 1285.5 16C 1285.5 16.843662 1285.4854 17.687065 1285.4558 18.530212" stroke="#005F91" stroke-width="1" fill="none" />
        <path d="M106 266.5C 106.00001 284.3112 99.702805 299.51398 87.10838 312.1084C 74.51398 324.70282 59.311188 331 41.5 331C 23.688816 331 8.486021 324.70282 -4.108387 312.1084C -16.702797 299.51398 -23 284.3112 -23 266.5C -23 248.68881 -16.702797 233.48602 -4.108387 220.89162C 8.486021 208.29721 23.688816 202 41.5 202C 59.311188 202 74.51398 208.29721 87.10838 220.89162C 99.702805 233.48602 106.00001 248.68881 106 266.5C 106.00001 267.25058 105.98691 268.00092 105.96071 268.751" stroke="none" fill="#005F91" fill-rule="nonzero" />
        <path d="M1287 15.5C 1287 33.311184 1280.7029 48.513977 1268.1084 61.108387C 1255.514 73.7028 1240.3113 80 1222.5 80C 1204.6888 80 1189.4861 73.7028 1176.8916 61.108387C 1164.2972 48.513977 1158 33.311184 1158 15.5C 1158 -2.311184 1164.2972 -17.51398 1176.8916 -30.108387C 1189.4861 -42.702797 1204.6888 -49 1222.5 -49C 1240.3113 -49 1255.514 -42.702797 1268.1084 -30.108387C 1280.7029 -17.51398 1287 -2.311184 1287 15.5C 1287 16.250568 1286.9869 17.000908 1286.9607 17.751019" stroke="none" fill="#005F91" fill-rule="nonzero" />
        <path transform="matrix(0.22209814 -0.97502434 0.97502434 0.22209814 645.2074 1405.2406)"  d="M1325.453 298.268C 1325.4531 332.00793 1313.5242 360.80673 1289.6665 384.66443C 1265.8088 408.52216 1237.01 420.451 1203.27 420.451C 1169.5302 420.451 1140.7313 408.52216 1116.8735 384.66443C 1093.0159 360.80673 1081.0872 332.00793 1081.087 298.268C 1081.0872 264.5281 1093.0159 235.72931 1116.8735 211.87158C 1140.7313 188.01387 1169.5302 176.085 1203.27 176.085C 1237.01 176.085 1265.8088 188.01387 1289.6665 211.87158C 1313.5242 235.72931 1325.4531 264.5281 1325.453 298.268C 1325.4531 299.68982 1325.4282 301.1112 1325.3785 302.53214" stroke="none" fill="#005F91" fill-rule="nonzero" />
        <path d="M89 15.5C 89 40.214745 80.262024 61.310097 62.786057 78.78606C 45.310097 96.262024 24.214743 105 -0.5 105C -25.214743 105 -46.310097 96.262024 -63.786057 78.78606C -81.262024 61.310097 -90 40.214745 -90 15.5C -90 -9.214742 -81.262024 -30.310095 -63.786057 -47.786057C -46.310097 -65.262024 -25.214743 -74 -0.5 -74C 24.214743 -74 45.310097 -65.262024 62.786057 -47.786057C 80.262024 -30.310095 89 -9.214742 89 15.5C 89 16.541487 88.98183 17.582655 88.94548 18.623505" stroke="none" fill="#0F6E9F" fill-rule="nonzero" />
        <path transform="matrix(0.22209814 -0.97502434 0.97502434 0.22209814 637.5873 1433.5636)"  d="M1320.1279 317.205C 1320.1279 345.625 1310.0801 369.88303 1289.984 389.979C 1269.888 410.075 1245.63 420.123 1217.21 420.123C 1188.79 420.123 1164.532 410.075 1144.4359 389.979C 1124.34 369.88303 1114.292 345.625 1114.292 317.205C 1114.292 288.78497 1124.34 264.52698 1144.4359 244.43097C 1164.532 224.33499 1188.79 214.287 1217.21 214.28699C 1245.63 214.287 1269.888 224.33499 1289.984 244.43097C 1310.0801 264.52698 1320.1279 288.78497 1320.1279 317.205C 1320.1279 318.40265 1320.1072 319.5999 1320.0653 320.79678" stroke="none" fill="#0F6E9F" fill-rule="nonzero" />
	</g>
</g>
</svg>