<svg width="43" height="39" viewBox="0 0 43 39" fill="none" xmlns="http://www.w3.org/2000/svg">
<path d="M39.6654 0H2.4688C1.10767 0 0 1.10767 0 2.4688V26.9922C0 28.3534 1.10767 29.461 2.4688 29.461H39.6654C41.0266 29.461 42.1342 28.3534 42.1342 26.9922V2.4688C42.1342 1.10767 41.0266 0 39.6654 0Z" fill="#262626"/>
<path d="M34.2333 35.5508H27.5676V31.9299H14.5652V35.5508H7.89944C7.21805 35.5508 6.66504 36.1039 6.66504 36.7852C6.66504 37.4666 7.21805 38.0196 7.89944 38.0196H34.2333C34.9147 38.0196 35.4677 37.4666 35.4677 36.7852C35.4677 36.1039 34.9147 35.5508 34.2333 35.5508Z" fill="#262626"/>
</svg>
