<svg width="22" height="22" viewBox="0 0 22 22" fill="none" xmlns="http://www.w3.org/2000/svg">
<path d="M5.5 1.375V0H0.6875C0.307785 0 0 0.307785 0 0.6875V5.5H1.375V2.34438L7.76188 8.73125L8.73125 7.76188L2.34438 1.375H5.5Z" fill="white"/>
<path d="M21.3126 0H16.5001V1.375H19.6557L13.2688 7.76188L14.2382 8.73125L20.6251 2.34438V5.5H22.0001V0.6875C22.0001 0.307785 21.6923 0 21.3126 0Z" fill="white"/>
<path d="M20.6251 19.6556L14.2382 13.2687L13.2688 14.2381L19.6557 20.625H16.5001V22H21.3126C21.6923 22 22.0001 21.6922 22.0001 21.3125V16.5H20.6251V19.6556Z" fill="white"/>
<path d="M7.76188 13.2618L1.375 19.6556V16.5H0V21.3125C0 21.6922 0.307785 22 0.6875 22H5.5V20.625H2.34438L8.73125 14.2381L7.76188 13.2618Z" fill="white"/>
</svg>
