<svg width="55" height="67" viewBox="0 0 55 67" fill="none" xmlns="http://www.w3.org/2000/svg">
<path d="M53.9881 60.6003C53.9787 60.4281 53.9284 60.2605 53.8421 60.1104L38.514 33.4997H40.9484C41.5646 33.4997 42.0652 32.9995 42.0652 32.3825V25.6828C42.0652 25.0662 41.5646 24.5665 40.9484 24.5665H35.3648V7.81641C35.3648 7.19974 34.865 6.70002 34.2484 6.70002H32.0152V1.11681C32.0152 0.49972 31.515 0 30.8984 0H24.1983C23.5817 0 23.0819 0.49972 23.0819 1.11681V6.70002H20.8487C20.2317 6.70002 19.7315 7.19974 19.7315 7.81682V24.5665H14.1487C13.5321 24.5665 13.0323 25.0662 13.0323 25.6828V32.3825C13.0323 32.9995 13.5321 33.4997 14.1487 33.4997H16.5827L1.25497 60.11C1.16869 60.2605 1.11839 60.4281 1.10857 60.6003L0.807187 65.591C0.766293 66.2056 1.23207 66.738 1.84752 66.7789C2.09125 66.7953 2.33415 66.7307 2.53781 66.5957L6.70405 63.8374C6.84799 63.7413 6.96822 63.6137 7.05451 63.4633L24.1983 33.6902V61.4157C24.1983 61.5887 24.2388 61.7596 24.3157 61.915L26.5493 66.3814C26.8241 66.9331 27.4948 67.1576 28.0464 66.8824C28.2636 66.774 28.4394 66.5982 28.5478 66.3814L30.781 61.915C30.8583 61.7596 30.8988 61.5887 30.8984 61.4157V33.6902L48.0422 63.4575C48.1289 63.608 48.2487 63.7356 48.3931 63.8317L52.5589 66.59C52.7421 66.7106 52.9564 66.7756 53.1756 66.7752C53.7918 66.7769 54.2928 66.278 54.294 65.6609C54.294 65.6372 54.2936 65.6143 54.292 65.591L53.9881 60.6003ZM25.3151 2.2332H29.782V6.70002H25.3151V2.2332ZM21.9651 8.93322H33.1316V24.5665H21.9651V8.93322ZM15.2655 26.7997H39.8316V31.2661H15.2655V26.7997ZM5.25028 62.1158L3.17084 63.4915L3.32174 60.997L19.1602 33.4997H21.7284L5.25028 62.1158ZM28.6656 61.1524L27.5483 63.3852L26.4315 61.1524V33.4997H28.6647V61.1524H28.6656ZM49.8468 62.1158L33.3663 33.4997H35.9344L51.7795 60.997L51.9304 63.4915L49.8468 62.1158Z" fill="#E0E0E0"/>
</svg>
