<svg width="59" height="53" viewBox="0 0 59 53" fill="none" xmlns="http://www.w3.org/2000/svg">
<path d="M55.2943 0H3.44156C1.54411 0 0 1.54411 0 3.44156V37.6277C0 39.5251 1.54411 41.0692 3.44156 41.0692H55.2943C57.1918 41.0692 58.7359 39.5251 58.7359 37.6277V3.44156C58.7359 1.54411 57.1918 0 55.2943 0Z" fill="#E0E0E0"/>
<path d="M47.7227 49.5585H38.4305V44.5109H20.305V49.5585H11.0128C10.0629 49.5585 9.29199 50.3294 9.29199 51.2793C9.29199 52.2291 10.0629 53 11.0128 53H47.7227C48.6726 53 49.4435 52.2291 49.4435 51.2793C49.4435 50.3294 48.6726 49.5585 47.7227 49.5585Z" fill="#E0E0E0"/>
</svg>
