<svg width="86" height="86" viewBox="0 0 86 86" fill="none" xmlns="http://www.w3.org/2000/svg">
<g clip-path="url(#clip0_1_326)">
<path d="M83.4802 18.8909H45.4812C43.8048 17.224 41.4964 16.192 38.9514 16.192H25.4574C20.3482 16.192 16.1916 20.3491 16.1916 25.4588V30.4116C13.0091 31.6665 10.7939 34.4168 10.7939 37.6025V38.3142C11.618 38.2004 12.4589 38.1405 13.3135 38.1405H61.8905C62.7452 38.1405 63.586 38.2004 64.4097 38.3142V37.6025C64.4097 33.2373 60.2528 29.6859 55.1432 29.6859H48.2172V25.4588C48.2172 24.9378 48.172 24.4277 48.0889 23.93H83.4802C84.8719 23.93 85.9998 22.8019 85.9998 21.4105C85.9998 20.019 84.8719 18.8909 83.4802 18.8909Z" fill="#E0E0E0"/>
<path d="M61.8909 43.1794H13.3139C5.9728 43.1794 0 49.1521 0 56.4933C0 63.8351 5.9728 69.8082 13.3139 69.8082H61.8909C69.2324 69.8082 75.2048 63.8351 75.2048 56.4933C75.2046 49.1521 69.2324 43.1794 61.8909 43.1794ZM15.6347 58.2751C15.1661 58.7438 14.516 59.0125 13.8541 59.0125C13.1908 59.0125 12.5407 58.7438 12.0721 58.2751C11.6034 57.8065 11.3345 57.1565 11.3345 56.493C11.3345 55.8295 11.6034 55.1811 12.0721 54.7125C12.5407 54.242 13.1908 53.9734 13.8541 53.9734C14.5159 53.9734 15.1661 54.2422 15.6347 54.7125C16.1033 55.1811 16.3721 55.8293 16.3721 56.493C16.3721 57.1566 16.1033 57.8065 15.6347 58.2751ZM27.5101 58.2751C27.0396 58.7438 26.3897 59.0125 25.7279 59.0125C25.0645 59.0125 24.4146 58.7438 23.9458 58.2751C23.4773 57.8065 23.2084 57.1565 23.2084 56.493C23.2084 55.8295 23.4773 55.1811 23.9458 54.7125C24.4146 54.242 25.0645 53.9734 25.7279 53.9734C26.3914 53.9734 27.0398 54.2422 27.5101 54.7125C27.9786 55.1811 28.2475 55.8293 28.2475 56.493C28.2475 57.1566 27.9786 57.8065 27.5101 58.2751ZM39.3838 58.2751C38.9135 58.7438 38.2651 59.0125 37.6018 59.0125C36.94 59.0125 36.2898 58.7438 35.8212 58.2751C35.3509 57.8065 35.0823 57.1565 35.0823 56.493C35.0823 55.8295 35.351 55.1795 35.8212 54.7125C36.2898 54.242 36.9382 53.9734 37.6018 53.9734C38.2651 53.9734 38.9153 54.2422 39.3838 54.7125C39.8524 55.1811 40.1214 55.8293 40.1214 56.493C40.1214 57.1566 39.8524 57.8065 39.3838 58.2751ZM51.2573 58.2751C50.7872 58.7438 50.1387 59.0125 49.4769 59.0125C48.8136 59.0125 48.1634 58.7438 47.6949 58.2751C47.2261 57.8065 46.9558 57.1565 46.9558 56.493C46.9558 55.8295 47.2261 55.1811 47.6949 54.7125C48.1634 54.242 48.8136 53.9734 49.4769 53.9734C50.1387 53.9734 50.7889 54.2422 51.2573 54.7125C51.7261 55.1811 51.9964 55.831 51.9964 56.493C51.9964 57.1565 51.7261 57.8048 51.2573 58.2751ZM63.1314 58.2751C62.6626 58.7438 62.0127 59.0125 61.3506 59.0125C60.6873 59.0125 60.0374 58.7438 59.5686 58.2751C59.1001 57.8065 58.8311 57.1565 58.8311 56.493C58.8311 55.8295 59.1001 55.1811 59.5686 54.7125C60.0374 54.242 60.6873 53.9734 61.3506 53.9734C62.0142 53.9734 62.6624 54.2422 63.1314 54.7125C63.6015 55.1811 63.8701 55.8293 63.8701 56.493C63.8701 57.1566 63.6014 57.8065 63.1314 58.2751Z" fill="#E0E0E0"/>
</g>
<defs>
<clipPath id="clip0_1_326">
<rect width="86" height="86" fill="white"/>
</clipPath>
</defs>
</svg>
