<svg width="67" height="67" viewBox="0 0 67 67" fill="none" xmlns="http://www.w3.org/2000/svg">
<path d="M65.4286 41.2331L62.6931 40.5943C62.5487 39.8954 62.3639 39.2042 62.1396 38.5261L64.1773 36.6153C64.5185 36.2959 64.6192 35.7939 64.4267 35.3662C63.8317 34.0515 63.0989 32.7861 62.2468 31.6026C61.9734 31.2231 61.491 31.059 61.0404 31.1958L58.3892 32.0008C57.9112 31.4648 57.4026 30.9551 56.8645 30.4772L57.6717 27.827C57.8073 27.3797 57.6443 26.8951 57.2648 26.6217C56.6764 26.1973 56.0671 25.8025 55.4404 25.4393V6.08325C55.4404 3.06778 52.9871 0.614502 49.9717 0.614502H6.22168C3.20621 0.614502 0.75293 3.06778 0.75293 6.08325V34.5208C0.75293 37.5362 3.20621 39.9895 6.22168 39.9895H17.7859L14.2061 49.8333H8.40918C7.80434 49.8333 7.31543 50.3233 7.31543 50.927C7.31543 53.9425 9.76871 56.3958 12.7842 56.3958H26.2865C26.4462 56.6375 26.5895 56.8901 26.759 57.1253C27.0325 57.5048 27.5126 57.6689 27.9654 57.5322L30.6167 56.7272C31.0946 57.2631 31.6032 57.7728 32.1414 58.2508L31.3342 60.9009C31.1986 61.3483 31.3615 61.8328 31.7411 62.1062C32.9223 62.9583 34.1889 63.6922 35.5057 64.2872C35.9334 64.4808 36.4343 64.3812 36.7548 64.0378L38.6645 61.999C39.3404 62.2233 40.0328 62.4081 40.7339 62.5525L41.3726 65.289C41.4798 65.7451 41.8637 66.0831 42.3307 66.129C43.0679 66.2023 43.7996 66.2395 44.5029 66.2395C45.2062 66.2395 45.9379 66.2023 46.6762 66.1301C47.1432 66.0842 47.5271 65.7462 47.6343 65.2901L48.2731 62.5536C48.9742 62.4092 49.6654 62.2243 50.3425 62.0001L52.2521 64.0389C52.5737 64.3812 53.0757 64.4818 53.5012 64.2882C54.8137 63.6943 56.0803 62.9604 57.2637 62.1073C57.6443 61.8339 57.8073 61.3493 57.6717 60.9009L56.8656 58.2497C57.4026 57.7717 57.9123 57.262 58.3903 56.7261L61.0415 57.5322C61.4867 57.6689 61.9745 57.5048 62.2479 57.1253C63.0989 55.9429 63.8328 54.6775 64.4278 53.3617C64.6214 52.9351 64.5207 52.4331 64.1784 52.1126L62.1407 50.2018C62.365 49.5237 62.5498 48.8325 62.6942 48.1325L65.4296 47.4937C65.8857 47.3876 66.2237 47.0026 66.2696 46.5367C66.3407 45.8017 66.3779 45.07 66.3779 44.3645C66.3779 43.659 66.3407 42.9273 66.2674 42.1901C66.2215 41.7242 65.8846 41.3392 65.4286 41.2331ZM6.22168 2.802H49.9717C51.7807 2.802 53.2529 4.27419 53.2529 6.08325V24.3718C52.892 24.3029 52.5135 24.4112 52.2521 24.689L50.3425 26.7278C49.6665 26.5036 48.9742 26.3187 48.2731 26.1743L47.6343 23.4378C47.5271 22.9817 47.1432 22.6437 46.6762 22.5978C45.1975 22.4523 43.8073 22.4523 42.3286 22.5978C41.8615 22.6437 41.4776 22.9817 41.3704 23.4378L40.7317 26.1743C40.0306 26.3187 39.3393 26.5036 38.6623 26.7278L36.7526 24.689C36.4321 24.3478 35.9312 24.2472 35.5036 24.4397C34.1911 25.0336 32.9245 25.7675 31.7411 26.6206C31.3604 26.894 31.1975 27.3786 31.3331 27.827L31.7071 29.052H9.50293V15.927H20.4404V13.7395H9.50293V7.177H46.6904V20.302H48.8779V6.08325C48.8779 5.4795 48.389 4.9895 47.7842 4.9895H8.40918C7.80434 4.9895 7.31543 5.4795 7.31543 6.08325V29.052H2.94043V6.08325C2.94043 4.27419 4.41262 2.802 6.22168 2.802ZM31.3779 31.2395C31.1242 31.4933 30.854 31.7328 30.6156 32.0008L28.1098 31.2395H31.3779ZM2.94043 34.5208V31.2395H27.2315C27.0478 31.315 26.8815 31.4331 26.759 31.6026C25.9081 32.785 25.1742 34.0504 24.5792 35.3662C24.3856 35.7928 24.4862 36.2948 24.8286 36.6153L26.0951 37.802H6.22168C4.41262 37.802 2.94043 36.3298 2.94043 34.5208ZM20.1123 39.9895H26.4561C26.4068 40.1908 26.3543 40.3909 26.3128 40.5943L23.5773 41.2331C23.1212 41.3392 22.7832 41.7242 22.7373 42.1901C22.6651 42.9273 22.6279 43.659 22.6279 44.3645C22.6279 45.07 22.6651 45.8006 22.7384 46.5389C22.7843 47.0048 23.1223 47.3898 23.5784 47.4959L26.3139 48.1347C26.432 48.7089 26.5961 49.2722 26.7678 49.8333H16.5336L20.1123 39.9895ZM12.7842 54.2083C11.3579 54.2083 10.1417 53.2939 9.68996 52.0208H24.927L24.8275 52.1137C24.4862 52.4331 24.3856 52.9351 24.5781 53.3628C24.7082 53.6504 24.8701 53.9261 25.0134 54.2083H12.7842ZM64.1532 45.5479L61.4987 46.1681C61.0678 46.2687 60.7407 46.6187 60.6685 47.0551C60.4957 48.1018 60.219 49.1365 59.846 50.1297C59.6907 50.5431 59.8001 51.0101 60.1228 51.312L62.0981 53.1637C61.747 53.8659 61.3489 54.5506 60.9136 55.209L58.3421 54.427C57.9178 54.2968 57.4595 54.4368 57.1795 54.7781C56.5035 55.6006 55.7423 56.3618 54.9165 57.0411C54.5753 57.3222 54.4375 57.7804 54.5654 58.2037L55.3475 60.7751C54.6868 61.2115 54.0032 61.6086 53.3021 61.9608L51.4515 59.9843C51.1496 59.6617 50.6793 59.5523 50.2692 59.7087C49.2793 60.0806 48.2446 60.3573 47.1936 60.5312C46.7571 60.6034 46.4071 60.9304 46.3065 61.3614L45.6875 64.0159C44.8825 64.0651 44.1256 64.0651 43.3206 64.0159L42.7015 61.3614C42.6009 60.9304 42.252 60.6034 41.8145 60.5312C40.7634 60.3573 39.7298 60.0795 38.7389 59.7087C38.3265 59.5534 37.8573 59.6617 37.5565 59.9843L35.7059 61.9608C35.0026 61.6086 34.3179 61.2115 33.6595 60.7751L34.4426 58.2048C34.5706 57.7815 34.4317 57.3232 34.0915 57.0422C33.2668 56.364 32.5056 55.6028 31.8286 54.7792C31.5475 54.4379 31.0881 54.299 30.6659 54.4281L28.0945 55.209C27.6581 54.5495 27.2611 53.8659 26.9089 53.1637L28.8853 51.312C29.2079 51.0101 29.3173 50.5431 29.162 50.1297C28.789 49.1354 28.5123 48.1007 28.3395 47.054C28.2684 46.6176 27.9403 46.2676 27.5093 46.167L24.8548 45.5468C24.8286 45.1465 24.8154 44.7506 24.8154 44.3645C24.8154 43.9784 24.8286 43.5825 24.8526 43.1811L27.5071 42.5609C27.9381 42.4603 28.2651 42.1103 28.3373 41.6739C28.5101 40.6261 28.7868 39.5914 29.1598 38.5993C29.3162 38.1859 29.2068 37.7189 28.8842 37.4159L26.9078 35.5642C27.2589 34.862 27.657 34.1784 28.0923 33.5189L30.6637 34.2998C31.087 34.4278 31.5464 34.2889 31.8264 33.9487C32.5034 33.1262 33.2635 32.365 34.0893 31.6858C34.4306 31.4047 34.5684 30.9464 34.4404 30.5231L33.6584 27.9517C34.319 27.5153 35.0026 27.1183 35.7037 26.7661L37.5543 28.7425C37.8551 29.0651 38.3243 29.1734 38.7367 29.0181C39.7265 28.6462 40.7612 28.3695 41.8123 28.1956C42.2487 28.1234 42.5987 27.7964 42.6993 27.3654L43.3184 24.7109C44.1234 24.6617 44.8803 24.6617 45.6853 24.7109L46.3043 27.3654C46.405 27.7964 46.7539 28.1234 47.1914 28.1956C48.2425 28.3695 49.2761 28.6473 50.267 29.0181C50.6771 29.1734 51.1475 29.064 51.4493 28.7425L53.3 26.7661C54.0032 27.1183 54.6879 27.5153 55.3464 27.9517L54.5632 30.522C54.4353 30.9453 54.5742 31.4036 54.9143 31.6847C55.739 32.3628 56.5003 33.124 57.1773 33.9476C57.4584 34.2889 57.9167 34.4289 58.34 34.2987L60.9114 33.5178C61.3478 34.1773 61.7448 34.8609 62.097 35.5631L60.1206 37.4148C59.7979 37.7167 59.6885 38.1837 59.8439 38.5972C60.2168 39.5914 60.4935 40.6261 60.6664 41.6728C60.7375 42.1092 61.0656 42.4592 61.4965 42.5598L64.151 43.18C64.1773 43.5825 64.1904 43.9784 64.1904 44.3645C64.1904 44.7506 64.1773 45.1465 64.1532 45.5479Z" fill="#E0E0E0"/>
</svg>
