<svg width="62" height="62" viewBox="0 0 62 62" fill="none" xmlns="http://www.w3.org/2000/svg">
<g clip-path="url(#clip0_1_394)">
<path d="M33.0257 20.7094L1.76563 51.9695C-0.497248 54.2325 -0.596908 57.9191 1.62782 60.2195C3.90063 62.5694 7.64847 62.5933 9.95119 60.2906L41.409 28.8328C38.9217 26.0331 34.9516 22.4229 33.0257 20.7094Z" fill="#E0E0E0"/>
<path d="M53.154 19.3931C52.586 18.6384 52.6617 17.5802 53.3297 16.9122L54.7727 15.4692C57.0357 13.2062 57.1355 9.51953 54.9106 7.21912C52.6377 4.8693 48.89 4.84544 46.5875 7.14816L45.0765 8.65904C44.4089 9.32663 43.3509 9.40304 42.5964 8.83523C31.1918 0.251518 18.2405 -2.21128 11.625 2.03402C11.2862 2.25138 11.0519 2.60969 11.0269 3.01136C10.9884 3.63003 11.3984 4.16005 11.9723 4.29846C19.4123 6.0915 28.1832 10.5135 36.0118 17.7235C38.158 19.7002 42.2757 23.842 44.265 25.9767C51.5108 33.7519 55.8838 42.5522 57.6824 49.9848C57.7753 50.3687 58.0303 50.7013 58.3928 50.8587C58.9661 51.1077 59.6087 50.8974 59.9315 50.3988C64.2057 43.7971 61.7571 30.8224 53.154 19.3931Z" fill="#E0E0E0"/>
</g>
<defs>
<clipPath id="clip0_1_394">
<rect width="62" height="62" fill="white"/>
</clipPath>
</defs>
</svg>
