<svg width="17" height="17" viewBox="0 0 17 17" fill="none" xmlns="http://www.w3.org/2000/svg">
<g clip-path="url(#clip0_1_201)">
<path d="M7.49638 0.0205078C3.36292 0.0205078 0 3.37423 0 7.49644C0 11.6186 3.36295 14.9724 7.49638 14.9724C11.6298 14.9724 14.9928 11.6186 14.9928 7.49644C14.9928 3.37423 11.6298 0.0205078 7.49638 0.0205078ZM7.49638 13.7434C4.04046 13.7434 1.22892 10.9409 1.22892 7.49641C1.22892 4.05174 4.04046 1.24939 7.49638 1.24939C10.9523 1.24939 13.7639 4.05174 13.7639 7.49641C13.7639 10.9409 10.9523 13.7434 7.49638 13.7434Z" fill="#7D7373"/>
<path d="M16.8191 15.9294L12.7841 11.915C12.5435 11.6757 12.1545 11.6768 11.9151 11.9172C11.6759 12.1579 11.6769 12.5468 11.9173 12.7863L15.9523 16.8007C16.0723 16.9199 16.2288 16.9795 16.3857 16.9795C16.5436 16.9795 16.7013 16.9191 16.8214 16.7985C17.0606 16.5578 17.0596 16.1689 16.8191 15.9294Z" fill="#7D7373"/>
</g>
<defs>
<clipPath id="clip0_1_201">
<rect width="17" height="17" fill="white"/>
</clipPath>
</defs>
</svg>
